<?xml version="1.0" encoding="UTF-8" standalone="no"?><svg xmlns="http://www.w3.org/2000/svg" xmlns:xlink="http://www.w3.org/1999/xlink" contentScriptType="application/ecmascript" contentStyleType="text/css" height="2706px" preserveAspectRatio="none" style="width:1879px;height:2706px;" version="1.1" viewBox="0 0 1879 2706" width="1879px" zoomAndPan="magnify"><defs/><g><!--cluster Dependencies--><path d="M1735,798 L1829,798 A4.5,4.5 0 0 1 1832,801 L1839,818.4844 L1864,818.4844 A3,3 0 0 1 1867,821.4844 L1867,1158 A3,3 0 0 1 1864,1161 L1735,1161 A3,3 0 0 1 1732,1158 L1732,801 A3,3 0 0 1 1735,798 " fill="#FFFFFF" style="stroke: #000000; stroke-width: 1.5;"/><line style="stroke: #000000; stroke-width: 1.5;" x1="1732" x2="1839" y1="818.4844" y2="818.4844"/><text fill="#000000" font-family="Tahoma, sans-serif" font-size="12" font-weight="bold" lengthAdjust="spacingAndGlyphs" textLength="94" x="1736" y="812.0059">Dependencies</text><!--entity debug--><rect fill="#F8F8F8" height="34.4844" rx="3" ry="3" style="stroke: #383838; stroke-width: 1.0;" width="55" x="1772" y="943"/><rect fill="#F8F8F8" height="5" style="stroke: #383838; stroke-width: 1.0;" width="10" x="1767" y="948"/><rect fill="#F8F8F8" height="5" style="stroke: #383838; stroke-width: 1.0;" width="10" x="1767" y="967.4844"/><text fill="#000000" font-family="Tahoma, sans-serif" font-size="12" lengthAdjust="spacingAndGlyphs" textLength="35" x="1782" y="965.0059">debug</text><!--entity lodash/lodash--><rect fill="#F8F8F8" height="34.4844" rx="3" ry="3" style="stroke: #383838; stroke-width: 1.0;" width="103" x="1748" y="1111"/><rect fill="#F8F8F8" height="5" style="stroke: #383838; stroke-width: 1.0;" width="10" x="1743" y="1116"/><rect fill="#F8F8F8" height="5" style="stroke: #383838; stroke-width: 1.0;" width="10" x="1743" y="1135.4844"/><text fill="#000000" font-family="Tahoma, sans-serif" font-size="12" lengthAdjust="spacingAndGlyphs" textLength="83" x="1758" y="1133.0059">lodash/lodash</text><!--entity san--><rect fill="#F8F8F8" height="34.4844" rx="3" ry="3" style="stroke: #383838; stroke-width: 1.0;" width="41" x="1779" y="1055"/><rect fill="#F8F8F8" height="5" style="stroke: #383838; stroke-width: 1.0;" width="10" x="1774" y="1060"/><rect fill="#F8F8F8" height="5" style="stroke: #383838; stroke-width: 1.0;" width="10" x="1774" y="1079.4844"/><text fill="#000000" font-family="Tahoma, sans-serif" font-size="12" lengthAdjust="spacingAndGlyphs" textLength="21" x="1789" y="1077.0059">san</text><!--entity ts-morph--><rect fill="#F8F8F8" height="34.4844" rx="3" ry="3" style="stroke: #383838; stroke-width: 1.0;" width="73" x="1763" y="887"/><rect fill="#F8F8F8" height="5" style="stroke: #383838; stroke-width: 1.0;" width="10" x="1758" y="892"/><rect fill="#F8F8F8" height="5" style="stroke: #383838; stroke-width: 1.0;" width="10" x="1758" y="911.4844"/><text fill="#000000" font-family="Tahoma, sans-serif" font-size="12" lengthAdjust="spacingAndGlyphs" textLength="53" x="1773" y="909.0059">ts-morph</text><!--entity ts2php--><rect fill="#F8F8F8" height="34.4844" rx="3" ry="3" style="stroke: #383838; stroke-width: 1.0;" width="59" x="1770" y="999"/><rect fill="#F8F8F8" height="5" style="stroke: #383838; stroke-width: 1.0;" width="10" x="1765" y="1004"/><rect fill="#F8F8F8" height="5" style="stroke: #383838; stroke-width: 1.0;" width="10" x="1765" y="1023.4844"/><text fill="#000000" font-family="Tahoma, sans-serif" font-size="12" lengthAdjust="spacingAndGlyphs" textLength="39" x="1780" y="1021.0059">ts2php</text><!--entity typescript--><rect fill="#F8F8F8" height="34.4844" rx="3" ry="3" style="stroke: #383838; stroke-width: 1.0;" width="76" x="1761.5" y="831"/><rect fill="#F8F8F8" height="5" style="stroke: #383838; stroke-width: 1.0;" width="10" x="1756.5" y="836"/><rect fill="#F8F8F8" height="5" style="stroke: #383838; stroke-width: 1.0;" width="10" x="1756.5" y="855.4844"/><text fill="#000000" font-family="Tahoma, sans-serif" font-size="12" lengthAdjust="spacingAndGlyphs" textLength="56" x="1771.5" y="853.0059">typescript</text><ellipse cx="21.7653" cy="1359.2122" fill="#F8F8F8" rx="15.7653" ry="13.2122" style="stroke: #383838; stroke-width: 0.5;"/><text fill="#000000" font-family="Tahoma, sans-serif" font-size="12" lengthAdjust="spacingAndGlyphs" textLength="18" x="12.7653" y="1362.9544">src</text><!--entity _anode_compiler--><rect fill="#F8F8F8" height="34.4844" rx="3" ry="3" style="stroke: #000000; stroke-width: 0.5;" width="111" x="659.5" y="2117"/><text fill="#000000" font-family="Tahoma, sans-serif" font-size="12" lengthAdjust="spacingAndGlyphs" textLength="91" x="669.5" y="2139.0059">anode-compiler</text><ellipse cx="1397.5122" cy="2359.242" fill="#F8F8F8" rx="44.0122" ry="13.242" style="stroke: #383838; stroke-width: 0.5;"/><text fill="#000000" font-family="Tahoma, sans-serif" font-size="12" lengthAdjust="spacingAndGlyphs" textLength="58" x="1368.5122" y="2362.9842">anode-util</text><ellipse cx="1397.2843" cy="385.242" fill="#F8F8F8" rx="31.2843" ry="13.242" style="stroke: #383838; stroke-width: 0.5;"/><text fill="#000000" font-family="Tahoma, sans-serif" font-size="12" lengthAdjust="spacingAndGlyphs" textLength="40" x="1377.2843" y="388.9842">ast-util</text><!--entity _common_js--><rect fill="#F8F8F8" height="34.4844" rx="3" ry="3" style="stroke: #000000; stroke-width: 0.5;" width="88" x="492.5" y="744"/><text fill="#000000" font-family="Tahoma, sans-serif" font-size="12" lengthAdjust="spacingAndGlyphs" textLength="68" x="502.5" y="766.0059">common-js</text><!--entity _compiled_component--><rect fill="#F8F8F8" height="34.4844" rx="3" ry="3" style="stroke: #000000; stroke-width: 0.5;" width="144" x="1517" y="1679"/><text fill="#000000" font-family="Tahoma, sans-serif" font-size="12" lengthAdjust="spacingAndGlyphs" textLength="124" x="1527" y="1701.0059">compiled-component</text><!--entity _compiler--><rect fill="#F8F8F8" height="34.4844" rx="3" ry="3" style="stroke: #000000; stroke-width: 0.5;" width="70" x="501.5" y="1270"/><text fill="#000000" font-family="Tahoma, sans-serif" font-size="12" lengthAdjust="spacingAndGlyphs" textLength="50" x="511.5" y="1292.0059">compiler</text><!--entity _component--><rect fill="#F8F8F8" height="34.4844" rx="3" ry="3" style="stroke: #000000; stroke-width: 0.5;" width="86" x="1354.5" y="1403"/><text fill="#000000" font-family="Tahoma, sans-serif" font-size="12" lengthAdjust="spacingAndGlyphs" textLength="66" x="1364.5" y="1425.0059">component</text><!--entity _component_info--><rect fill="#F8F8F8" height="34.4844" rx="3" ry="3" style="stroke: #000000; stroke-width: 0.5;" width="113" x="1165" y="1546"/><text fill="#000000" font-family="Tahoma, sans-serif" font-size="12" lengthAdjust="spacingAndGlyphs" textLength="93" x="1175" y="1568.0059">component-info</text><!--entity _component_parser--><rect fill="#F8F8F8" height="34.4844" rx="3" ry="3" style="stroke: #000000; stroke-width: 0.5;" width="127" x="995" y="1265"/><text fill="#000000" font-family="Tahoma, sans-serif" font-size="12" lengthAdjust="spacingAndGlyphs" textLength="107" x="1005" y="1287.0059">component-parser</text><!--entity _component_tree--><rect fill="#F8F8F8" height="34.4844" rx="3" ry="3" style="stroke: #000000; stroke-width: 0.5;" width="113" x="835" y="1201"/><text fill="#000000" font-family="Tahoma, sans-serif" font-size="12" lengthAdjust="spacingAndGlyphs" textLength="93" x="845" y="1223.0059">component-tree</text><ellipse cx="715.0802" cy="335.016" fill="#F8F8F8" rx="73.0802" ry="17.016" style="stroke: #383838; stroke-width: 0.5;"/><text fill="#000000" font-family="Tahoma, sans-serif" font-size="12" lengthAdjust="spacingAndGlyphs" textLength="120" x="655.0802" y="338.7582">dependency-resolver</text><ellipse cx="1221.4411" cy="2097.242" fill="#F8F8F8" rx="36.9411" ry="13.242" style="stroke: #383838; stroke-width: 0.5;"/><text fill="#000000" font-family="Tahoma, sans-serif" font-size="12" lengthAdjust="spacingAndGlyphs" textLength="48" x="1197.4411" y="2100.9842">dom-util</text><!--entity _element_compiler--><rect fill="#F8F8F8" height="34.4844" rx="3" ry="3" style="stroke: #000000; stroke-width: 0.5;" width="121" x="831" y="1920"/><text fill="#000000" font-family="Tahoma, sans-serif" font-size="12" lengthAdjust="spacingAndGlyphs" textLength="101" x="841" y="1942.0059">element-compiler</text><!--entity _emitters_emitter--><rect fill="#F8F8F8" height="34.4844" rx="3" ry="3" style="stroke: #000000; stroke-width: 0.5;" width="112" x="1002.5" y="2107"/><text fill="#000000" font-family="Tahoma, sans-serif" font-size="12" lengthAdjust="spacingAndGlyphs" textLength="92" x="1012.5" y="2129.0059">emitters/emitter</text><ellipse cx="124.5919" cy="2682.242" fill="#F8F8F8" rx="22.0919" ry="13.242" style="stroke: #383838; stroke-width: 0.5;"/><text fill="#000000" font-family="Tahoma, sans-serif" font-size="12" lengthAdjust="spacingAndGlyphs" textLength="27" x="111.0919" y="2685.9842">exec</text><ellipse cx="1221.5862" cy="1866.2172" fill="#F8F8F8" rx="56.5862" ry="13.7172" style="stroke: #383838; stroke-width: 0.5;"/><text fill="#000000" font-family="Tahoma, sans-serif" font-size="12" lengthAdjust="spacingAndGlyphs" textLength="79" x="1182.0862" y="1869.9594">expr-compiler</text><!--entity _js_san_app_parser--><rect fill="#F8F8F8" height="34.4844" rx="3" ry="3" style="stroke: #000000; stroke-width: 0.5;" width="124" x="307" y="1012"/><text fill="#000000" font-family="Tahoma, sans-serif" font-size="12" lengthAdjust="spacingAndGlyphs" textLength="104" x="317" y="1034.0059">js-san-app-parser</text><ellipse cx="1588.9706" cy="1348.242" fill="#F8F8F8" rx="19.9706" ry="13.242" style="stroke: #383838; stroke-width: 0.5;"/><text fill="#000000" font-family="Tahoma, sans-serif" font-size="12" lengthAdjust="spacingAndGlyphs" textLength="24" x="1576.9706" y="1351.9842">lang</text><ellipse cx="1397.5339" cy="512.2068" fill="#F8F8F8" rx="76.5339" ry="17.7068" style="stroke: #383838; stroke-width: 0.5;"/><text fill="#000000" font-family="Tahoma, sans-serif" font-size="12" lengthAdjust="spacingAndGlyphs" textLength="128" x="1333.5339" y="515.949">normalize-component</text><!--entity _renderer--><rect fill="#F8F8F8" height="34.4844" rx="3" ry="3" style="stroke: #000000; stroke-width: 0.5;" width="67" x="858" y="1275"/><text fill="#000000" font-family="Tahoma, sans-serif" font-size="12" lengthAdjust="spacingAndGlyphs" textLength="47" x="868" y="1297.0059">renderer</text><!--entity _renderer_compiler--><rect fill="#F8F8F8" height="34.4844" rx="3" ry="3" style="stroke: #000000; stroke-width: 0.5;" width="122" x="475.5" y="1689"/><text fill="#000000" font-family="Tahoma, sans-serif" font-size="12" lengthAdjust="spacingAndGlyphs" textLength="102" x="485.5" y="1711.0059">renderer-compiler</text><ellipse cx="536.4056" cy="2311.242" fill="#F8F8F8" rx="33.4056" ry="13.242" style="stroke: #383838; stroke-width: 0.5;"/><text fill="#000000" font-family="Tahoma, sans-serif" font-size="12" lengthAdjust="spacingAndGlyphs" textLength="43" x="514.9056" y="2314.9842">runtime</text><!--entity _san_app--><rect fill="#F8F8F8" height="34.4844" rx="3" ry="3" style="stroke: #000000; stroke-width: 0.5;" width="67" x="681.5" y="902"/><text fill="#000000" font-family="Tahoma, sans-serif" font-size="12" lengthAdjust="spacingAndGlyphs" textLength="47" x="691.5" y="924.0059">san-app</text><!--entity _san_app_parser--><rect fill="#F8F8F8" height="34.4844" rx="3" ry="3" style="stroke: #000000; stroke-width: 0.5;" width="108" x="482.5" y="846"/><text fill="#000000" font-family="Tahoma, sans-serif" font-size="12" lengthAdjust="spacingAndGlyphs" textLength="88" x="492.5" y="868.0059">san-app-parser</text><!--entity _san_data--><rect fill="#F8F8F8" height="34.4844" rx="3" ry="3" style="stroke: #000000; stroke-width: 0.5;" width="71" x="501" y="1510"/><text fill="#000000" font-family="Tahoma, sans-serif" font-size="12" lengthAdjust="spacingAndGlyphs" textLength="51" x="511" y="1532.0059">san-data</text><!--entity _san_project--><rect fill="#F8F8F8" height="34.4844" rx="3" ry="3" style="stroke: #000000; stroke-width: 0.5;" width="87" x="81" y="1081"/><text fill="#000000" font-family="Tahoma, sans-serif" font-size="12" lengthAdjust="spacingAndGlyphs" textLength="67" x="91" y="1103.0059">san-project</text><!--entity _san_sourcefile--><rect fill="#F8F8F8" height="34.4844" rx="3" ry="3" style="stroke: #000000; stroke-width: 0.5;" width="103" x="840" y="180"/><text fill="#000000" font-family="Tahoma, sans-serif" font-size="12" lengthAdjust="spacingAndGlyphs" textLength="83" x="850" y="202.0059">san-sourcefile</text><!--entity _source_file_type--><rect fill="#F8F8F8" height="34.4844" rx="3" ry="3" style="stroke: #000000; stroke-width: 0.5;" width="111" x="1003" y="272"/><text fill="#000000" font-family="Tahoma, sans-serif" font-size="12" lengthAdjust="spacingAndGlyphs" textLength="91" x="1013" y="294.0059">source-file-type</text><ellipse cx="891.4767" cy="1798.242" fill="#F8F8F8" rx="40.4767" ry="13.242" style="stroke: #383838; stroke-width: 0.5;"/><text fill="#000000" font-family="Tahoma, sans-serif" font-size="12" lengthAdjust="spacingAndGlyphs" textLength="53" x="864.9767" y="1801.9842">stringifier</text><ellipse cx="237.3345" cy="1382.242" fill="#F8F8F8" rx="26.3345" ry="13.242" style="stroke: #383838; stroke-width: 0.5;"/><text fill="#000000" font-family="Tahoma, sans-serif" font-size="12" lengthAdjust="spacingAndGlyphs" textLength="33" x="220.8345" y="1385.9842">target</text><!--entity _target_js--><rect fill="#F8F8F8" height="34.4844" rx="3" ry="3" style="stroke: #000000; stroke-width: 0.5;" width="69" x="334.5" y="1413"/><text fill="#000000" font-family="Tahoma, sans-serif" font-size="12" lengthAdjust="spacingAndGlyphs" textLength="49" x="344.5" y="1435.0059">target-js</text><!--entity _ts_san_app_parser--><rect fill="#F8F8F8" height="34.4844" rx="3" ry="3" style="stroke: #000000; stroke-width: 0.5;" width="124" x="307" y="507"/><text fill="#000000" font-family="Tahoma, sans-serif" font-size="12" lengthAdjust="spacingAndGlyphs" textLength="104" x="317" y="529.0059">ts-san-app-parser</text><ellipse cx="715.0061" cy="101.242" fill="#F8F8F8" rx="23.5061" ry="13.242" style="stroke: #383838; stroke-width: 0.5;"/><text fill="#000000" font-family="Tahoma, sans-serif" font-size="12" lengthAdjust="spacingAndGlyphs" textLength="29" x="700.5061" y="104.9842">ts2js</text><ellipse cx="536.734" cy="709.242" fill="#F8F8F8" rx="36.234" ry="13.242" style="stroke: #383838; stroke-width: 0.5;"/><text fill="#000000" font-family="Tahoma, sans-serif" font-size="12" lengthAdjust="spacingAndGlyphs" textLength="47" x="513.234" y="712.9842">tsconfig</text><ellipse cx="1589.0833" cy="1886.242" fill="#F8F8F8" rx="51.0833" ry="13.242" style="stroke: #383838; stroke-width: 0.5;"/><text fill="#000000" font-family="Tahoma, sans-serif" font-size="12" lengthAdjust="spacingAndGlyphs" textLength="68" x="1555.0833" y="1889.9842">type-guards</text><ellipse cx="1397.3051" cy="2592.242" fill="#F8F8F8" rx="43.3051" ry="13.242" style="stroke: #383838; stroke-width: 0.5;"/><text fill="#000000" font-family="Tahoma, sans-serif" font-size="12" lengthAdjust="spacingAndGlyphs" textLength="57" x="1368.8051" y="2595.9842">utils/case</text><!--entity _utils_emitter--><rect fill="#F8F8F8" height="34.4844" rx="3" ry="3" style="stroke: #000000; stroke-width: 0.5;" width="89" x="1353" y="2480"/><text fill="#000000" font-family="Tahoma, sans-serif" font-size="12" lengthAdjust="spacingAndGlyphs" textLength="69" x="1363" y="2502.0059">utils/emitter</text><ellipse cx="714.7843" cy="2358.242" fill="#F8F8F8" rx="31.2843" ry="13.242" style="stroke: #383838; stroke-width: 0.5;"/><text fill="#000000" font-family="Tahoma, sans-serif" font-size="12" lengthAdjust="spacingAndGlyphs" textLength="40" x="694.7843" y="2361.9842">utils/fs</text><ellipse cx="536.3315" cy="1580.8663" fill="#F8F8F8" rx="62.3315" ry="14.8663" style="stroke: #383838; stroke-width: 0.5;"/><text fill="#000000" font-family="Tahoma, sans-serif" font-size="12" lengthAdjust="spacingAndGlyphs" textLength="94" x="489.3315" y="1584.6085">utils/underscore</text><!--link _anode_compiler to anode-util--><path d="M724.439,2151.305 C740.628,2182.66 779.099,2248.865 831,2284 C996.334,2395.923 1251.96,2378.08 1353.14,2365.442 " fill="none" id="_anode_compiler-anode-util" style="stroke: #000000; stroke-width: 0.5;"/><polygon fill="#000000" points="1358.13,2364.807,1348.6985,2361.9702,1353.1697,2365.4356,1349.7043,2369.9068,1358.13,2364.807" style="stroke: #000000; stroke-width: 0.5;"/><!--link _anode_compiler to _compiled_component--><path d="M740.661,2151.052 C763.068,2165.439 797.627,2184.939 831,2193 C1026.6,2240.248 1148.01,2274.604 1278,2121 C1325.85,2064.465 1283.81,2024.051 1321,1960 C1384.32,1850.937 1504.42,1755.946 1559.32,1716.042 " fill="none" id="_anode_compiler-_compiled_component" style="stroke: #000000; stroke-width: 0.5;"/><polygon fill="#000000" points="1563.47,1713.036,1553.8328,1715.0667,1559.4178,1715.9651,1558.5194,1721.5502,1563.47,1713.036" style="stroke: #000000; stroke-width: 0.5;"/><!--link _anode_compiler to _component--><path d="M761.316,2151.052 C840.701,2177.846 1007.36,2220.121 1122,2152 C1156.37,2131.579 1144.89,2107.551 1165,2073 C1212.89,1990.709 1240.83,1978.657 1278,1891 C1347.78,1726.445 1383.25,1511.47 1393.38,1442.4 " fill="none" id="_anode_compiler-_component" style="stroke: #000000; stroke-width: 0.5;"/><polygon fill="#000000" points="1394.12,1437.3,1388.8538,1445.6227,1393.3929,1442.2469,1396.7688,1446.786,1394.12,1437.3" style="stroke: #000000; stroke-width: 0.5;"/><!--link _anode_compiler to _component_info--><path d="M721.583,2116.864 C735.221,2076.94 773.383,1976.038 831,1909 C874.173,1858.768 901.276,1864.594 952,1822 C972.458,1804.821 975.82,1798.595 995,1780 C1069.63,1707.642 1158.67,1622.23 1198.89,1583.7 " fill="none" id="_anode_compiler-_component_info" style="stroke: #000000; stroke-width: 0.5;"/><polygon fill="#000000" points="1202.62,1580.11,1193.3513,1583.4404,1199.0068,1583.5661,1198.8811,1589.2216,1202.62,1580.11" style="stroke: #000000; stroke-width: 0.5;"/><!--link _anode_compiler to _element_compiler--><path d="M725.248,2116.925 C742.752,2085.729 783.28,2018.631 831,1974 C837.746,1967.69 845.726,1961.868 853.613,1956.8 " fill="none" id="_anode_compiler-_element_compiler" style="stroke: #000000; stroke-width: 0.5;"/><polygon fill="#000000" points="857.977,1954.063,848.2273,1955.4572,853.7414,1956.7201,852.4786,1962.2342,857.977,1954.063" style="stroke: #000000; stroke-width: 0.5;"/><!--link _anode_compiler to _emitters_emitter--><path d="M770.868,2132.393 C832.761,2130.581 933.117,2127.642 997.171,2125.767 " fill="none" id="_anode_compiler-_emitters_emitter" style="stroke: #000000; stroke-width: 0.5;"/><polygon fill="#000000" points="1002.485,2125.611,993.3712,2121.8776,997.4872,2125.7581,993.6066,2129.8741,1002.485,2125.611" style="stroke: #000000; stroke-width: 0.5;"/><!--link _anode_compiler to expr-compiler--><path d="M748.405,2116.933 C817.263,2080.646 983.211,1993.087 1122,1919 C1145.85,1906.27 1172.88,1891.714 1192.59,1881.081 " fill="none" id="_anode_compiler-expr-compiler" style="stroke: #000000; stroke-width: 0.5;"/><polygon fill="#000000" points="1197.44,1878.465,1187.6196,1879.2138,1193.0386,1880.8372,1191.4152,1886.2561,1197.44,1878.465" style="stroke: #000000; stroke-width: 0.5;"/><!--link _anode_compiler to san--><path d="M723.229,2151.252 C742.582,2196.642 796.445,2317.637 831,2343 C890.938,2386.993 921.1,2367.837 995,2376 C1296.78,2409.336 1516.98,2491.281 1661,2224 C1737.04,2082.874 1693.22,2025.875 1705,1866 C1708.13,1823.546 1699.33,1134.69 1724,1100 C1735.32,1084.08 1756.86,1077.2 1773.88,1074.24 " fill="none" id="_anode_compiler-san" style="stroke: #000000; stroke-width: 0.5;"/><polygon fill="#000000" points="1779,1073.44,1769.4836,1070.9025,1774.062,1074.2249,1770.7396,1078.8033,1779,1073.44" style="stroke: #000000; stroke-width: 0.5;"/><!--link _anode_compiler to stringifier--><path d="M718.043,2116.861 C724.875,2066.491 751.187,1916.891 831,1828 C838.173,1820.011 847.966,1813.871 857.536,1809.29 " fill="none" id="_anode_compiler-stringifier" style="stroke: #000000; stroke-width: 0.5;"/><polygon fill="#000000" points="862.204,1807.165,852.3555,1807.2524,857.6531,1809.2362,855.6694,1814.5338,862.204,1807.165" style="stroke: #000000; stroke-width: 0.5;"/><!--link _anode_compiler to type-guards--><path d="M730.178,2151.022 C750.28,2174.074 789.286,2214.976 831,2238 C888.318,2269.637 1060.1,2305.33 1122,2284 C1342.97,2207.855 1527.85,1969.322 1575.86,1903.165 " fill="none" id="_anode_compiler-type-guards" style="stroke: #000000; stroke-width: 0.5;"/><polygon fill="#000000" points="1578.83,1899.06,1570.3203,1904.0183,1575.9045,1903.1148,1576.808,1908.6991,1578.83,1899.06" style="stroke: #000000; stroke-width: 0.5;"/><!--link anode-util to lodash/lodash--><path d="M1429.73,2349.965 C1443.94,2345.03 1460.54,2338.057 1474,2329 C1597.09,2246.158 1643.06,2222.822 1705,2088 C1785.33,1913.136 1796.79,1278.47 1798.29,1150.56 " fill="none" id="anode-util-lodash/lodash" style="stroke: #000000; stroke-width: 0.5;"/><polygon fill="#000000" points="1798.35,1145.19,1794.2474,1154.1437,1798.2929,1150.1897,1802.2469,1154.2351,1798.35,1145.19" style="stroke: #000000; stroke-width: 0.5;"/><!--link anode-util to san--><path d="M1433.87,2351.468 C1447.86,2346.958 1463.16,2339.901 1474,2329 C1511.01,2291.78 1495.21,2266.754 1517,2219 C1591.61,2055.502 1659.8,2034.938 1705,1861 C1715.64,1820.069 1699.49,1134.47 1724,1100 C1735.32,1084.08 1756.86,1077.2 1773.88,1074.24 " fill="none" id="anode-util-san" style="stroke: #000000; stroke-width: 0.5;"/><polygon fill="#000000" points="1779,1073.44,1769.4908,1070.8757,1774.0598,1074.211,1770.7245,1078.78,1779,1073.44" style="stroke: #000000; stroke-width: 0.5;"/><!--link anode-util to type-guards--><path d="M1436.2,2352.569 C1450.2,2348.246 1464.89,2341.031 1474,2329 C1585.42,2181.879 1407.18,2064.313 1517,1916 C1523.77,1906.861 1533.87,1900.483 1544.34,1896.041 " fill="none" id="anode-util-type-guards" style="stroke: #000000; stroke-width: 0.5;"/><polygon fill="#000000" points="1549.17,1894.133,1539.3294,1893.7303,1544.5217,1895.9752,1542.2769,1901.1675,1549.17,1894.133" style="stroke: #000000; stroke-width: 0.5;"/><!--link ast-util to debug--><path d="M1420.73,394.13 C1479.66,419.69 1639.84,498.2 1705,621 C1737.45,682.16 1682.86,876.3 1724,932 C1733.96,945.48 1751.2,952.47 1766.59,956.1 " fill="none" id="ast-util-debug" style="stroke: #000000; stroke-width: 0.5;"/><polygon fill="#000000" points="1771.73,957.2,1763.7795,951.3871,1766.8431,956.1426,1762.0876,959.2062,1771.73,957.2" style="stroke: #000000; stroke-width: 0.5;"/><!--link ast-util to ts-morph--><path d="M1421.29,376.38 C1478.15,356.51 1627.29,314.8 1705,391 C1743.51,428.76 1692.44,832.27 1724,876 C1732,887.08 1744.93,893.77 1757.79,897.82 " fill="none" id="ast-util-ts-morph" style="stroke: #000000; stroke-width: 0.5;"/><polygon fill="#000000" points="1762.9,899.3,1755.3626,892.9607,1758.0962,897.9132,1753.1437,900.6468,1762.9,899.3" style="stroke: #000000; stroke-width: 0.5;"/><!--link _common_js to debug--><path d="M575.25,743.87 C583.105,740.29 591.327,736.53 599,733 C618.147,724.19 621.42,717.55 642,713 C705.358,698.99 723.117,712.09 788,713 C1058.52,716.78 1125.95,730 1396.5,730 C1396.5,730 1396.5,730 1590,730 C1658.91,730 1671.15,773.98 1705,834 C1726.8,872.64 1695.37,898.11 1724,932 C1734.65,944.61 1751.59,951.55 1766.63,955.37 " fill="none" id="_common_js-debug" style="stroke: #000000; stroke-width: 0.5;"/><polygon fill="#000000" points="1771.64,956.54,1763.7954,950.585,1766.7729,955.3948,1761.9631,958.3723,1771.64,956.54" style="stroke: #000000; stroke-width: 0.5;"/><!--link _common_js to dependency-resolver--><path d="M580.795,747.14 C587.597,743.42 594.015,738.77 599,733 C649.618,674.4 696.447,432.79 710.048,357.5 " fill="none" id="_common_js-dependency-resolver" style="stroke: #000000; stroke-width: 0.5;"/><polygon fill="#000000" points="710.969,352.38,705.4377,360.5289,710.0831,357.3009,713.3111,361.9463,710.969,352.38" style="stroke: #000000; stroke-width: 0.5;"/><!--link _compiled_component to san--><path d="M1607.72,1678.56 C1634.55,1650.83 1684.51,1593.7 1705,1534 C1720.67,1488.34 1695.66,1139.07 1724,1100 C1735.4,1084.29 1756.72,1077.39 1773.64,1074.36 " fill="none" id="_compiled_component-san" style="stroke: #000000; stroke-width: 0.5;"/><polygon fill="#000000" points="1778.73,1073.54,1769.2054,1071.0337,1773.7946,1074.3411,1770.4872,1078.9303,1778.73,1073.54" style="stroke: #000000; stroke-width: 0.5;"/><!--link _compiler to _renderer--><path d="M571.773,1282.06 C592.13,1279.38 618.481,1276.35 642,1275 C706.783,1271.29 723.33,1269.67 788,1275 C809.526,1276.77 833.341,1280.61 852.593,1284.19 " fill="none" id="_compiler-_renderer" style="stroke: #000000; stroke-width: 0.5;"/><polygon fill="#000000" points="857.896,1285.19,849.7936,1279.5908,852.9827,1284.263,848.3104,1287.4521,857.896,1285.19" style="stroke: #000000; stroke-width: 0.5;"/><!--link _compiler to _san_app--><path d="M545.776,1269.74 C574.728,1209.38 671.442,1007.73 703.544,940.8 " fill="none" id="_compiler-_san_app" style="stroke: #000000; stroke-width: 0.5;"/><polygon fill="#000000" points="705.742,936.22,698.2494,942.6122,703.584,940.7303,705.4659,946.065,705.742,936.22" style="stroke: #000000; stroke-width: 0.5;"/><!--link _component to _compiled_component--><path d="M1410.35,1437.27 C1443.46,1485.48 1536.83,1621.47 1573.22,1674.47 " fill="none" id="_component-_compiled_component" style="stroke: #000000; stroke-width: 0.5;"/><polygon fill="#000000" points="1576.15,1678.74,1574.3474,1669.0575,1573.3174,1674.6198,1567.7551,1673.5897,1576.15,1678.74" style="stroke: #000000; stroke-width: 0.5;"/><!--link _component to san--><path d="M1440.55,1424.13 C1497.2,1427.32 1598.17,1424.34 1661,1372 C1703.37,1336.71 1691.79,1309.53 1705,1256 C1713.36,1222.09 1702.42,1127.45 1724,1100 C1735.92,1084.84 1756.98,1077.89 1773.68,1074.7 " fill="none" id="_component-san" style="stroke: #000000; stroke-width: 0.5;"/><polygon fill="#000000" points="1778.71,1073.83,1769.1577,1071.4312,1773.7839,1074.6867,1770.5285,1079.3129,1778.71,1073.83" style="stroke: #000000; stroke-width: 0.5;"/><!--link _component to ts2php--><path d="M1408.9,1402.73 C1445.04,1344.09 1571.32,1150.34 1724,1044 C1736.22,1035.49 1751.35,1029.18 1764.78,1024.73 " fill="none" id="_component-ts2php" style="stroke: #000000; stroke-width: 0.5;"/><polygon fill="#000000" points="1769.64,1023.18,1759.8517,1022.0899,1764.8742,1024.6925,1762.2716,1029.7151,1769.64,1023.18" style="stroke: #000000; stroke-width: 0.5;"/><!--link _component_info to _compiled_component--><path d="M1269.53,1580.12 C1338.07,1605.05 1464.95,1651.22 1536.12,1677.12 " fill="none" id="_component_info-_compiled_component" style="stroke: #000000; stroke-width: 0.5;"/><polygon fill="#000000" points="1541.15,1678.95,1534.0655,1672.1082,1536.4527,1677.2367,1531.3242,1679.6239,1541.15,1678.95" style="stroke: #000000; stroke-width: 0.5;"/><!--link _component_info to _component--><path d="M1256.49,1545.9 C1264.11,1541.09 1271.78,1535.4 1278,1529 C1304.77,1501.44 1292.54,1479.81 1321,1454 C1329.22,1446.55 1339.34,1440.5 1349.48,1435.68 " fill="none" id="_component_info-_component" style="stroke: #000000; stroke-width: 0.5;"/><polygon fill="#000000" points="1354.13,1433.56,1344.2817,1433.6683,1349.5836,1435.6408,1347.611,1440.9426,1354.13,1433.56" style="stroke: #000000; stroke-width: 0.5;"/><!--link _component_info to lodash/lodash--><path d="M1278.11,1564.48 C1366.26,1569.26 1540.41,1588.88 1661,1668 C1685.75,1684.24 1682.49,1737.224 1705,1718 C1793.14,1642.73 1798.64,1249.1 1798.62,1150.44 " fill="none" id="_component_info-lodash/lodash" style="stroke: #000000; stroke-width: 0.5;"/><polygon fill="#000000" points="1798.62,1145.17,1794.6457,1154.1814,1798.6343,1150.17,1802.6457,1154.1585,1798.62,1145.17" style="stroke: #000000; stroke-width: 0.5;"/><!--link _component_info to san--><path d="M1278,1562.11 C1370.82,1557.53 1557.52,1534.55 1661,1427 C1713.32,1372.62 1690.82,1337.12 1705,1263 C1711.85,1227.18 1701.54,1128.73 1724,1100 C1735.88,1084.81 1756.95,1077.86 1773.66,1074.68 " fill="none" id="_component_info-san" style="stroke: #000000; stroke-width: 0.5;"/><polygon fill="#000000" points="1778.69,1073.81,1769.1377,1071.4112,1773.7639,1074.6667,1770.5085,1079.2929,1778.69,1073.81" style="stroke: #000000; stroke-width: 0.5;"/><!--link _component_parser to _component--><path d="M1084.63,1299.21 C1105.48,1312.94 1136.25,1331.96 1165,1345 C1226.62,1372.95 1301.75,1395.28 1349.37,1408.09 " fill="none" id="_component_parser-_component" style="stroke: #000000; stroke-width: 0.5;"/><polygon fill="#000000" points="1354.46,1409.45,1346.7923,1403.2689,1349.6284,1408.1635,1344.7338,1410.9996,1354.46,1409.45" style="stroke: #000000; stroke-width: 0.5;"/><!--link _component_parser to _component_info--><path d="M1069.33,1299.15 C1097.29,1347.95 1177.22,1487.46 1208.11,1541.37 " fill="none" id="_component_parser-_component_info" style="stroke: #000000; stroke-width: 0.5;"/><polygon fill="#000000" points="1210.6,1545.71,1209.6008,1535.912,1208.1162,1541.3705,1202.6577,1539.886,1210.6,1545.71" style="stroke: #000000; stroke-width: 0.5;"/><!--link _component_parser to lang--><path d="M1122.2,1289.83 C1239.16,1304.44 1485.79,1335.24 1563.81,1344.98 " fill="none" id="_component_parser-lang" style="stroke: #000000; stroke-width: 0.5;"/><polygon fill="#000000" points="1569.13,1345.64,1560.6902,1340.5636,1564.168,1345.0251,1559.7064,1348.5028,1569.13,1345.64" style="stroke: #000000; stroke-width: 0.5;"/><!--link _component_parser to lodash/lodash--><path d="M1122.2,1279.32 C1263.2,1272.54 1601.08,1251.99 1705,1207 C1735.1,1193.97 1762.89,1167.94 1780.21,1149.32 " fill="none" id="_component_parser-lodash/lodash" style="stroke: #000000; stroke-width: 0.5;"/><polygon fill="#000000" points="1783.96,1145.23,1774.9257,1149.152,1780.5775,1148.9122,1780.8173,1154.564,1783.96,1145.23" style="stroke: #000000; stroke-width: 0.5;"/><!--link _component_parser to san--><path d="M1096.5,1264.91 C1157.59,1238.31 1284,1190 1396.5,1190 C1396.5,1190 1396.5,1190 1590,1190 C1642.71,1190 1666.72,1197.23 1705,1161 C1725.62,1141.48 1704.51,1120.65 1724,1100 C1736.95,1086.28 1757.29,1079.23 1773.44,1075.64 " fill="none" id="_component_parser-san" style="stroke: #000000; stroke-width: 0.5;"/><polygon fill="#000000" points="1778.74,1074.55,1769.116,1072.4573,1773.8438,1075.5635,1770.7376,1080.2913,1778.74,1074.55" style="stroke: #000000; stroke-width: 0.5;"/><!--link _component_tree to _component--><path d="M916.373,1235.08 C927.534,1243.4 940.801,1253.8 952,1264 C972.693,1282.84 972.418,1293.47 995,1310 C1062.53,1359.43 1084.67,1367.5 1165,1391 C1227.08,1409.16 1301.78,1415.95 1349.21,1418.49 " fill="none" id="_component_tree-_component" style="stroke: #000000; stroke-width: 0.5;"/><polygon fill="#000000" points="1354.28,1418.75,1345.4973,1414.293,1349.2866,1418.4932,1345.0864,1422.2825,1354.28,1418.75" style="stroke: #000000; stroke-width: 0.5;"/><!--link _component_tree to _component_info--><path d="M921.685,1235.18 C932.515,1242.81 944.078,1252.65 952,1264 C988.288,1315.98 957.879,1348.61 995,1400 C1043.6,1467.28 1128.54,1517.67 1179.15,1543.54 " fill="none" id="_component_tree-_component_info" style="stroke: #000000; stroke-width: 0.5;"/><polygon fill="#000000" points="1183.63,1545.81,1177.4274,1538.1596,1179.1751,1543.5397,1173.795,1545.2874,1183.63,1545.81" style="stroke: #000000; stroke-width: 0.5;"/><!--link _component_tree to _component_parser--><path d="M936.717,1235.15 C958.908,1243.76 985.847,1254.21 1008.65,1263.05 " fill="none" id="_component_tree-_component_parser" style="stroke: #000000; stroke-width: 0.5;"/><polygon fill="#000000" points="1013.45,1264.91,1006.5086,1257.923,1008.7892,1263.0998,1003.6124,1265.3804,1013.45,1264.91" style="stroke: #000000; stroke-width: 0.5;"/><!--link _component_tree to san--><path d="M948.265,1212.68 C1120.28,1196.02 1635.26,1144.25 1705,1115 C1714.92,1110.84 1714.63,1105.29 1724,1100 C1739.78,1091.09 1758.95,1083.96 1773.89,1079.12 " fill="none" id="_component_tree-san" style="stroke: #000000; stroke-width: 0.5;"/><polygon fill="#000000" points="1778.79,1077.57,1769.0007,1076.4883,1774.0256,1079.0866,1771.4273,1084.1114,1778.79,1077.57" style="stroke: #000000; stroke-width: 0.5;"/><!--link dependency-resolver to ts-morph--><path d="M787.261,332.36 C993.243,325.11 1579.92,307.34 1661,337 C1685,345.78 1693.78,351.05 1705,374 C1729.52,424.15 1691.36,830.72 1724,876 C1731.99,887.08 1744.92,893.78 1757.78,897.83 " fill="none" id="dependency-resolver-ts-morph" style="stroke: #000000; stroke-width: 0.5;"/><polygon fill="#000000" points="1762.89,899.31,1755.3526,892.9707,1758.0862,897.9232,1753.1337,900.6568,1762.89,899.31" style="stroke: #000000; stroke-width: 0.5;"/><!--link _element_compiler to anode-util--><path d="M951.924,1954.125 C998.532,1967.921 1064.86,1988.357 1122,2009 C1192.48,2034.462 1224.92,2020.101 1278,2073 C1357.16,2151.882 1385.9,2291.294 1393.91,2340.875 " fill="none" id="_element_compiler-anode-util" style="stroke: #000000; stroke-width: 0.5;"/><polygon fill="#000000" points="1394.7,2345.929,1397.2521,2336.4165,1393.9226,2340.9898,1389.3493,2337.6604,1394.7,2345.929" style="stroke: #000000; stroke-width: 0.5;"/><!--link _element_compiler to dom-util--><path d="M919.392,1954.243 C939.772,1967.005 968.669,1984.45 995,1998 C1063.64,2033.321 1147.62,2068.061 1191.16,2085.473 " fill="none" id="_element_compiler-dom-util" style="stroke: #000000; stroke-width: 0.5;"/><polygon fill="#000000" points="1196.02,2087.408,1189.1485,2080.3523,1191.3774,2085.5515,1186.1782,2087.7804,1196.02,2087.408" style="stroke: #000000; stroke-width: 0.5;"/><!--link _element_compiler to _emitters_emitter--><path d="M905.402,1954.236 C917.708,1970.85 936.596,1996.815 952,2020 C972.205,2050.412 968.512,2064.87 995,2090 C1000.714,2095.421 1007.46,2100.251 1014.37,2104.448 " fill="none" id="_element_compiler-_emitters_emitter" style="stroke: #000000; stroke-width: 0.5;"/><polygon fill="#000000" points="1018.68,2106.979,1012.9402,2098.9756,1014.367,2104.4495,1008.8931,2105.8763,1018.68,2106.979" style="stroke: #000000; stroke-width: 0.5;"/><!--link _element_compiler to expr-compiler--><path d="M952.279,1924.06 C1015.95,1910.277 1115.42,1888.746 1173.65,1876.141 " fill="none" id="_element_compiler-expr-compiler" style="stroke: #000000; stroke-width: 0.5;"/><polygon fill="#000000" points="1178.81,1875.024,1169.1678,1873.0172,1173.923,1876.0811,1170.8591,1880.8364,1178.81,1875.024" style="stroke: #000000; stroke-width: 0.5;"/><!--link _element_compiler to san--><path d="M939.744,1919.954 C943.948,1918.073 948.089,1916.081 952,1914 C972.571,1903.053 973.777,1893.623 995,1884 C1065.88,1851.862 1089.36,1860.34 1165,1842 C1220.05,1828.651 1620.94,1764.058 1661,1724 C1720.76,1664.24 1693.34,1622.71 1705,1539 C1711.73,1490.64 1695.34,1139.53 1724,1100 C1735.39,1084.29 1756.71,1077.39 1773.64,1074.36 " fill="none" id="_element_compiler-san" style="stroke: #000000; stroke-width: 0.5;"/><polygon fill="#000000" points="1778.73,1073.54,1769.2125,1071.0068,1773.7924,1074.3272,1770.472,1078.907,1778.73,1073.54" style="stroke: #000000; stroke-width: 0.5;"/><!--link _element_compiler to type-guards--><path d="M952.099,1932.63 C1085.63,1922.838 1407.06,1899.268 1534.57,1889.918 " fill="none" id="_element_compiler-type-guards" style="stroke: #000000; stroke-width: 0.5;"/><polygon fill="#000000" points="1539.76,1889.537,1530.4878,1886.2165,1534.7738,1889.9084,1531.0819,1894.1944,1539.76,1889.537" style="stroke: #000000; stroke-width: 0.5;"/><!--link _emitters_emitter to expr-compiler--><path d="M1075.12,2106.885 C1088.75,2091.324 1108.42,2067.299 1122,2044 C1147.18,2000.785 1140.24,1983.461 1165,1940 C1176.84,1919.21 1193.7,1897.554 1205.72,1883.082 " fill="none" id="_emitters_emitter-expr-compiler" style="stroke: #000000; stroke-width: 0.5;"/><polygon fill="#000000" points="1208.98,1879.197,1200.1315,1883.5218,1205.7667,1883.0278,1206.2607,1888.663,1208.98,1879.197" style="stroke: #000000; stroke-width: 0.5;"/><!--link _emitters_emitter to _utils_emitter--><path d="M1075.3,2141.49 C1130.93,2203.061 1317.58,2409.646 1377.68,2476.17 " fill="none" id="_emitters_emitter-_utils_emitter" style="stroke: #000000; stroke-width: 0.5;"/><polygon fill="#000000" points="1381.12,2479.977,1378.0606,2470.6154,1377.7704,2476.2648,1372.121,2475.9747,1381.12,2479.977" style="stroke: #000000; stroke-width: 0.5;"/><!--link expr-compiler to lang--><path d="M1231.9,1852.675 C1282.41,1781.098 1521.26,1442.58 1576.55,1364.22 " fill="none" id="expr-compiler-lang" style="stroke: #000000; stroke-width: 0.5;"/><polygon fill="#000000" points="1579.64,1359.85,1571.1806,1364.8937,1576.7555,1363.934,1577.7151,1369.5089,1579.64,1359.85" style="stroke: #000000; stroke-width: 0.5;"/><!--link expr-compiler to san--><path d="M1272.07,1859.926 C1373.66,1846.623 1600.97,1812.207 1661,1764 C1696.34,1735.62 1694.24,1716.029 1705,1672 C1720.09,1610.23 1686.94,1151.67 1724,1100 C1735.31,1084.23 1756.64,1077.33 1773.59,1074.32 " fill="none" id="expr-compiler-san" style="stroke: #000000; stroke-width: 0.5;"/><polygon fill="#000000" points="1778.69,1073.51,1769.1736,1070.9725,1773.752,1074.2949,1770.4296,1078.8733,1778.69,1073.51" style="stroke: #000000; stroke-width: 0.5;"/><!--link expr-compiler to type-guards--><path d="M1276.82,1868.973 C1345.92,1872.753 1464.54,1879.244 1533.65,1883.026 " fill="none" id="expr-compiler-type-guards" style="stroke: #000000; stroke-width: 0.5;"/><polygon fill="#000000" points="1538.94,1883.316,1530.1704,1878.8333,1533.9474,1883.0446,1529.7361,1886.8216,1538.94,1883.316" style="stroke: #000000; stroke-width: 0.5;"/><!--link _js_san_app_parser to _common_js--><path d="M377.687,1012 C393.621,977.43 432.263,896.97 474,835 C486.71,816.13 503.303,796.39 516.05,782.05 " fill="none" id="_js_san_app_parser-_common_js" style="stroke: #000000; stroke-width: 0.5;"/><polygon fill="#000000" points="519.537,778.16,510.5586,782.2084,516.2065,781.8893,516.5255,787.5372,519.537,778.16" style="stroke: #000000; stroke-width: 0.5;"/><!--link _js_san_app_parser to _component_tree--><path d="M385.957,1046.22 C405.044,1065.79 438.848,1097.29 474,1115 C591.772,1174.33 745.85,1200.86 829.689,1211.58 " fill="none" id="_js_san_app_parser-_component_tree" style="stroke: #000000; stroke-width: 0.5;"/><polygon fill="#000000" points="834.862,1212.24,826.4334,1207.145,829.9013,1211.6142,825.4321,1215.0821,834.862,1212.24" style="stroke: #000000; stroke-width: 0.5;"/><!--link _js_san_app_parser to debug--><path d="M431.255,1026.74 C477.387,1024.94 542.183,1022.19 599,1019 C1090.5,991.37 1212.02,959.9 1704,943 C1725.17,942.27 1748.6,946.46 1766.84,950.85 " fill="none" id="_js_san_app_parser-debug" style="stroke: #000000; stroke-width: 0.5;"/><polygon fill="#000000" points="1771.84,952.09,1764.0789,946.0266,1766.9893,950.8773,1762.1386,953.7877,1771.84,952.09" style="stroke: #000000; stroke-width: 0.5;"/><!--link _js_san_app_parser to san--><path d="M404.683,1046.01 C424.472,1054.76 450.04,1064.52 474,1069 C990.121,1165.44 1639.25,1092.23 1773.52,1075.28 " fill="none" id="_js_san_app_parser-san" style="stroke: #000000; stroke-width: 0.5;"/><polygon fill="#000000" points="1778.81,1074.61,1769.3793,1071.7705,1773.8495,1075.2372,1770.3828,1079.7073,1778.81,1074.61" style="stroke: #000000; stroke-width: 0.5;"/><!--link _js_san_app_parser to _san_app--><path d="M411.962,1011.94 C430.798,1004.53 453.38,995.96 474,989 C544.627,965.16 628.507,941.81 676.071,929.01 " fill="none" id="_js_san_app_parser-_san_app" style="stroke: #000000; stroke-width: 0.5;"/><polygon fill="#000000" points="681.123,927.66,671.3938,926.1292,676.2938,928.9559,673.4672,933.8559,681.123,927.66" style="stroke: #000000; stroke-width: 0.5;"/><!--link _js_san_app_parser to _san_app_parser--><path d="M391.452,1011.81 C403.406,1001.96 418.38,989.17 431,977 C462.967,946.16 497.257,907.58 517.519,884.13 " fill="none" id="_js_san_app_parser-_san_app_parser" style="stroke: #000000; stroke-width: 0.5;"/><polygon fill="#000000" points="520.891,880.22,511.9807,884.416,517.6225,884.0038,518.0347,889.6456,520.891,880.22" style="stroke: #000000; stroke-width: 0.5;"/><!--link _js_san_app_parser to _san_sourcefile--><path d="M431.248,1021.04 C541.469,1006.13 764.058,973.14 788,947 C888.802,836.93 891.419,331.73 890.729,219.24 " fill="none" id="_js_san_app_parser-_san_sourcefile" style="stroke: #000000; stroke-width: 0.5;"/><polygon fill="#000000" points="890.694,214.19,886.7713,223.224,890.7369,219.1898,894.771,223.1554,890.694,214.19" style="stroke: #000000; stroke-width: 0.5;"/><!--link normalize-component to ts-morph--><path d="M1466.81,504.48 C1537.87,500.86 1646.73,507.96 1705,575 C1748.97,625.58 1684.13,822.13 1724,876 C1732.06,886.88 1744.86,893.54 1757.6,897.61 " fill="none" id="normalize-component-ts-morph" style="stroke: #000000; stroke-width: 0.5;"/><polygon fill="#000000" points="1762.65,899.09,1755.1475,892.7094,1757.8539,897.6769,1752.8864,900.3832,1762.65,899.09" style="stroke: #000000; stroke-width: 0.5;"/><!--link _renderer_compiler to _anode_compiler--><path d="M539.947,1723.348 C547.937,1776.04 576.604,1937.708 642,2054 C654.665,2076.522 674.655,2098.055 690.362,2113.096 " fill="none" id="_renderer_compiler-_anode_compiler" style="stroke: #000000; stroke-width: 0.5;"/><polygon fill="#000000" points="694.256,2116.777,690.4638,2107.6875,690.6226,2113.3421,684.968,2113.5009,694.256,2116.777" style="stroke: #000000; stroke-width: 0.5;"/><!--link _renderer_compiler to _compiled_component--><path d="M539.201,1723.184 C546.935,1798.035 581.059,2094.877 642,2162 C787.14,2321.864 906.656,2252.789 1122,2237 C1191.9,2231.875 1217.5,2249.37 1278,2214 C1400.8,2142.213 1401.76,2083.531 1474,1961 C1475.67,1958.162 1551.68,1780.793 1578.64,1717.855 " fill="none" id="_renderer_compiler-_compiled_component" style="stroke: #000000; stroke-width: 0.5;"/><polygon fill="#000000" points="1580.65,1713.174,1573.4317,1719.8744,1578.6828,1717.7708,1580.7865,1723.0219,1580.65,1713.174" style="stroke: #000000; stroke-width: 0.5;"/><!--link _renderer_compiler to _component--><path d="M550.699,1688.66 C568.797,1666.12 603.489,1627.17 642,1606 C705.524,1571.09 1194.15,1463.7 1349.35,1430.14 " fill="none" id="_renderer_compiler-_component" style="stroke: #000000; stroke-width: 0.5;"/><polygon fill="#000000" points="1354.29,1429.07,1344.6488,1427.058,1349.4025,1430.1245,1346.336,1434.8781,1354.29,1429.07" style="stroke: #000000; stroke-width: 0.5;"/><!--link _renderer_compiler to _component_info--><path d="M559.797,1688.86 C580.085,1674.2 611.443,1653.81 642,1643 C822.894,1579.02 1052.48,1565.91 1159.91,1563.43 " fill="none" id="_renderer_compiler-_component_info" style="stroke: #000000; stroke-width: 0.5;"/><polygon fill="#000000" points="1164.93,1563.32,1155.8409,1559.5267,1159.9313,1563.4343,1156.0238,1567.5246,1164.93,1563.32" style="stroke: #000000; stroke-width: 0.5;"/><!--link _renderer_compiler to _component_tree--><path d="M550.177,1688.94 C563.865,1669.84 585.515,1637.54 599,1607 C627.357,1542.77 606.635,1515.65 642,1455 C698.814,1357.57 807.365,1274.71 860.161,1238.1 " fill="none" id="_renderer_compiler-_component_tree" style="stroke: #000000; stroke-width: 0.5;"/><polygon fill="#000000" points="864.479,1235.12,854.7995,1236.9386,860.3635,1237.9594,859.3426,1243.5234,864.479,1235.12" style="stroke: #000000; stroke-width: 0.5;"/><!--link _renderer_compiler to _element_compiler--><path d="M554.212,1723.263 C574.027,1743.183 608.592,1776.24 642,1800 C710.45,1848.681 797.951,1893.288 848.764,1917.653 " fill="none" id="_renderer_compiler-_element_compiler" style="stroke: #000000; stroke-width: 0.5;"/><polygon fill="#000000" points="853.565,1919.947,847.169,1912.4576,849.0536,1917.7913,843.7199,1919.6759,853.565,1919.947" style="stroke: #000000; stroke-width: 0.5;"/><!--link _renderer_compiler to _emitters_emitter--><path d="M543.492,1723.042 C556.569,1758.214 590.666,1839.825 642,1891 C649.666,1898.643 922.858,2049.713 1022.01,2104.429 " fill="none" id="_renderer_compiler-_emitters_emitter" style="stroke: #000000; stroke-width: 0.5;"/><polygon fill="#000000" points="1026.6,2106.961,1020.6512,2099.1117,1022.2218,2104.5461,1016.7874,2106.1168,1026.6,2106.961" style="stroke: #000000; stroke-width: 0.5;"/><!--link _renderer_compiler to expr-compiler--><path d="M597.572,1715.796 C710.365,1734.198 943.345,1772.249 952,1774 C1028.18,1789.413 1049.18,1787.824 1122,1815 C1147.78,1824.621 1175.47,1839.391 1194.9,1850.564 " fill="none" id="_renderer_compiler-expr-compiler" style="stroke: #000000; stroke-width: 0.5;"/><polygon fill="#000000" points="1199.66,1853.322,1193.8704,1845.3545,1195.3313,1850.8195,1189.8664,1852.2804,1199.66,1853.322" style="stroke: #000000; stroke-width: 0.5;"/><!--link _renderer_compiler to lodash/lodash--><path d="M597.781,1709.092 C830.972,1720.769 1663.05,1759.709 1705,1723 C1793.04,1645.97 1798.61,1249.07 1798.61,1150.29 " fill="none" id="_renderer_compiler-lodash/lodash" style="stroke: #000000; stroke-width: 0.5;"/><polygon fill="#000000" points="1798.61,1145.27,1794.61,1154.27,1798.61,1150.27,1802.61,1154.27,1798.61,1145.27" style="stroke: #000000; stroke-width: 0.5;"/><!--link _renderer_compiler to _renderer--><path d="M547.876,1688.58 C565.696,1659.17 603.888,1598.23 642,1551 C718.505,1456.19 823.088,1355.14 868.244,1312.67 " fill="none" id="_renderer_compiler-_renderer" style="stroke: #000000; stroke-width: 0.5;"/><polygon fill="#000000" points="871.91,1309.23,862.6114,1312.4758,868.2654,1312.653,868.0882,1318.3071,871.91,1309.23" style="stroke: #000000; stroke-width: 0.5;"/><!--link _renderer_compiler to san--><path d="M597.598,1700.225 C819.912,1678.3 1586.7,1597.49 1661,1519 C1737.66,1438.02 1689.09,1382.37 1705,1272 C1710.49,1233.94 1700.4,1130.36 1724,1100 C1735.91,1084.67 1757.18,1077.74 1773.95,1074.6 " fill="none" id="_renderer_compiler-san" style="stroke: #000000; stroke-width: 0.5;"/><polygon fill="#000000" points="1779,1073.74,1769.4614,1071.2875,1774.0692,1074.5689,1770.7877,1079.1767,1779,1073.74" style="stroke: #000000; stroke-width: 0.5;"/><!--link _renderer_compiler to stringifier--><path d="M559.347,1723.009 C579.584,1737.794 611.13,1758.449 642,1769 C710.346,1792.361 794.753,1797.609 845.517,1798.418 " fill="none" id="_renderer_compiler-stringifier" style="stroke: #000000; stroke-width: 0.5;"/><polygon fill="#000000" points="850.627,1798.487,841.6815,1794.3665,845.6275,1798.4199,841.5741,1802.3658,850.627,1798.487" style="stroke: #000000; stroke-width: 0.5;"/><!--link runtime to _utils_emitter--><path d="M566.829,2305.137 C617.001,2296.826 720.419,2287.375 788,2334 C823.831,2358.72 797.563,2394.128 831,2422 C889.149,2470.471 920.425,2454.985 995,2468 C1120.72,2489.942 1271.39,2495.336 1347.43,2496.626 " fill="none" id="runtime-_utils_emitter" style="stroke: #000000; stroke-width: 0.5;"/><polygon fill="#000000" points="1352.78,2496.712,1343.8499,2492.5583,1347.7807,2496.6263,1343.7127,2500.5571,1352.78,2496.712" style="stroke: #000000; stroke-width: 0.5;"/><!--link runtime to utils/fs--><path d="M564.691,2318.241 C596.634,2326.747 649.509,2340.827 683.01,2349.748 " fill="none" id="runtime-utils/fs" style="stroke: #000000; stroke-width: 0.5;"/><polygon fill="#000000" points="688.214,2351.134,680.5471,2344.9519,683.3825,2349.8468,678.4876,2352.6823,688.214,2351.134" style="stroke: #000000; stroke-width: 0.5;"/><!--link _san_app to _component_tree--><path d="M726.136,936.37 C756.205,987.89 844.863,1139.8 877.901,1196.41 " fill="none" id="_san_app-_component_tree" style="stroke: #000000; stroke-width: 0.5;"/><polygon fill="#000000" points="880.553,1200.96,879.4801,1191.1698,878.0367,1196.6393,872.5671,1195.1959,880.553,1200.96" style="stroke: #000000; stroke-width: 0.5;"/><!--link _san_app to _san_sourcefile--><path d="M720.141,901.86 C743.512,805.17 858.793,328.19 885.134,219.2 " fill="none" id="_san_app-_san_sourcefile" style="stroke: #000000; stroke-width: 0.5;"/><polygon fill="#000000" points="886.32,214.3,880.3008,222.0955,885.1349,219.1575,888.0728,223.9916,886.32,214.3" style="stroke: #000000; stroke-width: 0.5;"/><!--link _san_app_parser to debug--><path d="M590.561,855.72 C607.013,853.78 625.227,851.96 642,851 C759.918,844.25 1612.44,777.64 1705,851 C1733.98,873.97 1699.59,904.22 1724,932 C1734.9,944.4 1751.85,951.33 1766.84,955.19 " fill="none" id="_san_app_parser-debug" style="stroke: #000000; stroke-width: 0.5;"/><polygon fill="#000000" points="1771.83,956.38,1764.0187,950.3814,1766.9694,955.2077,1762.143,958.1584,1771.83,956.38" style="stroke: #000000; stroke-width: 0.5;"/><!--link _san_app_parser to san--><path d="M590.618,866.64 C641.558,870.66 720.476,878.32 788,891 C983.485,927.7 1021.6,1006 1220.5,1006 C1220.5,1006 1220.5,1006 1398.5,1006 C1542.26,1006 1711.26,1048.02 1773.7,1065 " fill="none" id="_san_app_parser-san" style="stroke: #000000; stroke-width: 0.5;"/><polygon fill="#000000" points="1778.71,1066.37,1771.0765,1060.1467,1773.8855,1065.0568,1768.9754,1067.8659,1778.71,1066.37" style="stroke: #000000; stroke-width: 0.5;"/><!--link _san_app_parser to _san_app--><path d="M590.935,879.95 C618.52,888.71 651.51,899.17 676.386,907.07 " fill="none" id="_san_app_parser-_san_app" style="stroke: #000000; stroke-width: 0.5;"/><polygon fill="#000000" points="681.249,908.61,673.8845,902.0706,676.4841,907.0947,671.46,909.6943,681.249,908.61" style="stroke: #000000; stroke-width: 0.5;"/><!--link _san_data to _component--><path d="M572.402,1522.63 C620.853,1516.48 711.204,1504.7 788,1493 C880.241,1478.95 902.493,1470.18 995,1458 C1122.61,1441.2 1274,1428.93 1349.2,1423.35 " fill="none" id="_san_data-_component" style="stroke: #000000; stroke-width: 0.5;"/><polygon fill="#000000" points="1354.48,1422.96,1345.2077,1419.6397,1349.4938,1423.3315,1345.802,1427.6176,1354.48,1422.96" style="stroke: #000000; stroke-width: 0.5;"/><!--link _san_project to _common_js--><path d="M130.963,1080.87 C141.68,1049.69 168.217,983.19 211,943 C289.827,868.95 342.929,901.77 431,839 C453.266,823.13 452.248,811.57 474,795 C480.751,789.86 488.374,785 495.897,780.65 " fill="none" id="_san_project-_common_js" style="stroke: #000000; stroke-width: 0.5;"/><polygon fill="#000000" points="500.559,778.01,490.756,778.9589,496.2069,780.4715,494.6943,785.9224,500.559,778.01" style="stroke: #000000; stroke-width: 0.5;"/><!--link _san_project to _compiler--><path d="M145.544,1115.16 C162.247,1128.85 187.087,1147.85 211,1161 C308.354,1214.53 433.221,1256.15 495.885,1275.37 " fill="none" id="_san_project-_compiler" style="stroke: #000000; stroke-width: 0.5;"/><polygon fill="#000000" points="501.021,1276.93,493.5781,1270.4799,496.2382,1275.4723,491.2458,1278.1324,501.021,1276.93" style="stroke: #000000; stroke-width: 0.5;"/><!--link _san_project to _js_san_app_parser--><path d="M168.018,1085.9 C205.425,1075.26 260.447,1059.6 303.313,1047.41 " fill="none" id="_san_project-_js_san_app_parser" style="stroke: #000000; stroke-width: 0.5;"/><polygon fill="#000000" points="308.213,1046.01,298.4612,1044.631,303.4046,1047.381,300.6547,1052.3244,308.213,1046.01" style="stroke: #000000; stroke-width: 0.5;"/><!--link _san_project to _renderer--><path d="M168.143,1106.57 C273.985,1128.18 556.862,1188.05 788,1256 C809.686,1262.38 833.531,1270.67 852.761,1277.69 " fill="none" id="_san_project-_renderer" style="stroke: #000000; stroke-width: 0.5;"/><polygon fill="#000000" points="857.547,1279.45,850.4717,1272.5987,852.852,1277.7304,847.7203,1280.1107,857.547,1279.45" style="stroke: #000000; stroke-width: 0.5;"/><!--link _san_project to san--><path d="M158.188,1080.77 C161.53,1078.87 164.852,1076.93 168,1075 C198.253,1056.48 405.579,918.74 431,894 C454.252,871.37 445.454,850.43 474,835 C600.788,766.49 980.132,783.65 1122,809 C1373.38,853.92 1426.67,906.52 1661,1008 C1681.06,1016.69 1686.35,1018.58 1705,1030 C1713.95,1035.48 1714.78,1039 1724,1044 C1739.93,1052.65 1759.09,1059.78 1774,1064.69 " fill="none" id="_san_project-san" style="stroke: #000000; stroke-width: 0.5;"/><polygon fill="#000000" points="1778.88,1066.26,1771.553,1059.6786,1774.1239,1064.7175,1769.085,1067.2883,1778.88,1066.26" style="stroke: #000000; stroke-width: 0.5;"/><!--link _san_project to target--><path d="M129.031,1115.15 C138.178,1157.3 165.177,1268.52 211,1351 C214.014,1356.43 218.018,1361.83 221.957,1366.57 " fill="none" id="_san_project-target" style="stroke: #000000; stroke-width: 0.5;"/><polygon fill="#000000" points="225.228,1370.38,222.4009,1360.9456,221.9712,1366.5861,216.3307,1366.1565,225.228,1370.38" style="stroke: #000000; stroke-width: 0.5;"/><!--link _san_project to _target_js--><path d="M135.427,1115.15 C150.776,1141.35 181.578,1192.64 211,1234 C257.991,1300.06 319.547,1373.56 349.719,1408.84 " fill="none" id="_san_project-_target_js" style="stroke: #000000; stroke-width: 0.5;"/><polygon fill="#000000" points="353.24,1412.95,350.4164,1403.5146,349.9846,1409.1549,344.3443,1408.7232,353.24,1412.95" style="stroke: #000000; stroke-width: 0.5;"/><!--link _san_project to ts-morph--><path d="M168.37,1097.78 C276.505,1095.85 567.452,1081.99 788,992 C1087.66,869.73 1072.86,592 1396.5,592 C1396.5,592 1396.5,592 1590,592 C1624.09,592 1638.7,595.22 1661,621 C1714.04,682.3 1685.63,719.29 1705,798 C1713.53,832.65 1700.34,849.3 1724,876 C1732.82,885.95 1745.53,892.38 1757.97,896.52 " fill="none" id="_san_project-ts-morph" style="stroke: #000000; stroke-width: 0.5;"/><polygon fill="#000000" points="1762.9,898.06,1755.4961,891.5652,1758.1261,896.5735,1753.1177,899.2035,1762.9,898.06" style="stroke: #000000; stroke-width: 0.5;"/><!--link _san_project to _ts_san_app_parser--><path d="M129.111,1080.69 C139.017,1034.68 168.719,905.92 211,805 C253.673,703.14 324.024,591.09 353.889,545.28 " fill="none" id="_san_project-_ts_san_app_parser" style="stroke: #000000; stroke-width: 0.5;"/><polygon fill="#000000" points="356.651,541.06,348.3716,546.3941,353.9099,545.2417,355.0623,550.7799,356.651,541.06" style="stroke: #000000; stroke-width: 0.5;"/><!--link _san_project to tsconfig--><path d="M129.652,1080.94 C139.025,1045.26 164.696,961.57 211,907 C295.267,807.68 442.468,743.82 505.484,719.77 " fill="none" id="_san_project-tsconfig" style="stroke: #000000; stroke-width: 0.5;"/><polygon fill="#000000" points="510.235,717.98,500.4016,717.4284,505.5594,719.7516,503.2361,724.9094,510.235,717.98" style="stroke: #000000; stroke-width: 0.5;"/><!--link _san_sourcefile to _component_info--><path d="M943.012,204.1 C1003.622,213.76 1099.87,233.08 1122,261 C1157.85,306.23 1157.84,1241.73 1165,1299 C1176.35,1389.84 1202.72,1495.87 1214.56,1540.94 " fill="none" id="_san_sourcefile-_component_info" style="stroke: #000000; stroke-width: 0.5;"/><polygon fill="#000000" points="1215.86,1545.87,1217.4364,1536.1481,1214.5868,1541.0348,1209.7001,1538.1852,1215.86,1545.87" style="stroke: #000000; stroke-width: 0.5;"/><!--link _san_sourcefile to _source_file_type--><path d="M922.476,214.14 C942.873,225.75 970.506,241.41 995,255 C1003.475,259.7 1012.63,264.72 1021.24,269.41 " fill="none" id="_san_sourcefile-_source_file_type" style="stroke: #000000; stroke-width: 0.5;"/><polygon fill="#000000" points="1025.97,271.98,1019.9648,264.1738,1021.5745,269.5967,1016.1516,271.2065,1025.97,271.98" style="stroke: #000000; stroke-width: 0.5;"/><!--link _san_sourcefile to ts-morph--><path d="M943.067,195.75 C1007.49,194.27 1122.26,192 1220.5,192 C1220.5,192 1220.5,192 1590,192 C1642.71,192 1672,179.89 1705,221 C1750.58,277.78 1681.69,816.75 1724,876 C1731.94,887.12 1744.86,893.82 1757.73,897.87 " fill="none" id="_san_sourcefile-ts-morph" style="stroke: #000000; stroke-width: 0.5;"/><polygon fill="#000000" points="1762.84,899.34,1755.3026,893.0007,1758.0362,897.9532,1753.0837,900.6868,1762.84,899.34" style="stroke: #000000; stroke-width: 0.5;"/><!--link src to anode-util--><path d="M22.9693,1372.2 C22.7906,1489.4 23.4508,2350.002 81,2447 C122.443,2516.852 155.279,2543 236.5,2543 C236.5,2543 236.5,2543 892.5,2543 C1089.83,2543 1305.71,2416.995 1374.31,2373.531 " fill="none" id="src-anode-util" style="stroke: #000000; stroke-width: 0.5;"/><polygon fill="#000000" points="1378.61,2370.79,1368.8701,2372.2506,1374.3926,2373.4759,1373.1674,2378.9984,1378.61,2370.79" style="stroke: #000000; stroke-width: 0.5;"/><!--link src to _compiler--><path d="M38.0606,1356.88 C106.675,1347.24 390.862,1307.32 496.086,1292.54 " fill="none" id="src-_compiler" style="stroke: #000000; stroke-width: 0.5;"/><polygon fill="#000000" points="501.26,1291.81,491.7914,1289.0997,496.3085,1292.5049,492.9033,1297.022,501.26,1291.81" style="stroke: #000000; stroke-width: 0.5;"/><!--link src to _component--><path d="M23.2154,1345.72 C25.1911,1227.76 41.0085,361.33 81,254 C120.312,148.49 123.905,54 236.5,54 C236.5,54 236.5,54 892.5,54 C1018.65,54 1052.51,115.72 1122,221 C1392.07,630.18 1398.51,1269.78 1396.96,1397.41 " fill="none" id="src-_component" style="stroke: #000000; stroke-width: 0.5;"/><polygon fill="#000000" points="1396.89,1402.76,1400.9926,1393.8063,1396.9471,1397.7603,1392.9931,1393.7149,1396.89,1402.76" style="stroke: #000000; stroke-width: 0.5;"/><!--link src to dependency-resolver--><path d="M22.7252,1345.92 C20.5049,1224.19 10.9177,294 236.5,294 C236.5,294 236.5,294 370,294 C469.65,294 584.404,311.17 652.971,323.29 " fill="none" id="src-dependency-resolver" style="stroke: #000000; stroke-width: 0.5;"/><polygon fill="#000000" points="658.235,324.23,650.0763,318.7131,653.3125,323.3528,648.6728,326.5891,658.235,324.23" style="stroke: #000000; stroke-width: 0.5;"/><!--link src to dom-util--><path d="M22.9856,1372.31 C22.9637,1485.21 24.8125,2280.139 81,2368 C123.206,2433.998 158.16,2451 236.5,2451 C236.5,2451 236.5,2451 716,2451 C953.667,2451 1158.71,2184.492 1208.82,2113.957 " fill="none" id="src-dom-util" style="stroke: #000000; stroke-width: 0.5;"/><polygon fill="#000000" points="1211.9,2109.599,1203.4429,2114.6466,1209.0174,2113.6844,1209.9796,2119.2588,1211.9,2109.599" style="stroke: #000000; stroke-width: 0.5;"/><!--link src to exec--><path d="M22.8932,1372.13 C21.9366,1500.79 16.3056,2533.713 81,2652 C85.6073,2660.424 93.7175,2667.0251 101.6266,2671.8646 " fill="none" id="src-exec" style="stroke: #000000; stroke-width: 0.5;"/><polygon fill="#000000" points="105.9764,2674.3723,100.1775,2666.4116,101.6448,2671.8749,96.1816,2673.3422,105.9764,2674.3723" style="stroke: #000000; stroke-width: 0.5;"/><!--link src to _renderer--><path d="M22.7693,1372.23 C20.9983,1493.31 15.017,2405 236.5,2405 C236.5,2405 236.5,2405 537.5,2405 C649.302,2405 709.777,2461.88 788,2382 C835.384,2333.613 824.46,1841.408 831,1774 C848.259,1596.1 877.732,1382.34 887.358,1314.08 " fill="none" id="src-_renderer" style="stroke: #000000; stroke-width: 0.5;"/><polygon fill="#000000" points="888.069,1309.04,882.8482,1317.3913,887.3689,1313.9907,890.7694,1318.5114,888.069,1309.04" style="stroke: #000000; stroke-width: 0.5;"/><!--link src to san--><path d="M23.0188,1345.98 C23.2744,1222.6 26.9974,261.87 81,148 C120.848,63.98 143.506,8 236.5,8 C236.5,8 236.5,8 892.5,8 C1033.57,8 1461.1,344.98 1474,361 C1656.04,587.15 1616.51,695.5 1705,972 C1715.09,1003.52 1701.82,1019.44 1724,1044 C1736.84,1058.22 1757.63,1065.25 1773.99,1068.71 " fill="none" id="src-san" style="stroke: #000000; stroke-width: 0.5;"/><polygon fill="#000000" points="1778.91,1069.67,1770.8565,1064.0006,1774.0049,1068.7004,1769.3052,1071.8488,1778.91,1069.67" style="stroke: #000000; stroke-width: 0.5;"/><!--link src to _san_app--><path d="M23.8757,1345.94 C27.5339,1295.17 43.1987,1111.71 81,1070 C240.636,893.85 565.477,905.25 676.113,914.9 " fill="none" id="src-_san_app" style="stroke: #000000; stroke-width: 0.5;"/><polygon fill="#000000" points="681.218,915.36,672.6099,910.5745,676.2379,914.9148,671.8976,918.5427,681.218,915.36" style="stroke: #000000; stroke-width: 0.5;"/><!--link src to _san_project--><path d="M27.7125,1346.76 C43.5022,1305.76 94.6875,1172.83 115.041,1119.97 " fill="none" id="src-_san_project" style="stroke: #000000; stroke-width: 0.5;"/><polygon fill="#000000" points="116.912,1115.11,109.9593,1122.0856,115.1248,1119.7797,117.4307,1124.9452,116.912,1115.11" style="stroke: #000000; stroke-width: 0.5;"/><!--link src to _san_sourcefile--><path d="M23.0695,1346.02 C23.7109,1246.34 29.8156,601.08 81,414 C121.049,267.62 84.7391,110 236.5,110 C236.5,110 236.5,110 370,110 C541.465,110 740.408,156.5 835.014,181.51 " fill="none" id="src-_san_sourcefile" style="stroke: #000000; stroke-width: 0.5;"/><polygon fill="#000000" points="839.991,182.83,832.317,176.6567,835.1581,181.5483,830.2664,184.3894,839.991,182.83" style="stroke: #000000; stroke-width: 0.5;"/><!--link src to _target_js--><path d="M37.5208,1363.12 C68.9447,1371.94 145.692,1392.87 211,1406 C251.158,1414.07 297.577,1420.86 329.467,1425.13 " fill="none" id="src-_target_js" style="stroke: #000000; stroke-width: 0.5;"/><polygon fill="#000000" points="334.458,1425.79,326.0632,1420.6396,329.5015,1425.1315,325.0096,1428.5699,334.458,1425.79" style="stroke: #000000; stroke-width: 0.5;"/><!--link src to utils/case--><path d="M23.1812,1372.26 C25.0079,1502.03 40.8753,2541.769 81,2592 C125.753,2648.0249 164.795,2635 236.5,2635 C236.5,2635 236.5,2635 1059.5,2635 C1167.35,2635 1293.07,2613.0607 1356.1,2600.5243 " fill="none" id="src-utils/case" style="stroke: #000000; stroke-width: 0.5;"/><polygon fill="#000000" points="1361.27,2599.49,1351.6581,2597.3425,1356.3681,2600.4756,1353.235,2605.1855,1361.27,2599.49" style="stroke: #000000; stroke-width: 0.5;"/><!--link src to _utils_emitter--><path d="M23.2233,1372.05 C25.4234,1497.6 43.9296,2488.098 81,2537 C125.023,2595.073 163.627,2589 236.5,2589 C236.5,2589 236.5,2589 1059.5,2589 C1169.15,2589 1292,2543.116 1354.72,2516.156 " fill="none" id="src-_utils_emitter" style="stroke: #000000; stroke-width: 0.5;"/><polygon fill="#000000" points="1359.5,2514.089,1349.6516,2513.9913,1354.911,2516.0743,1352.8281,2521.3337,1359.5,2514.089" style="stroke: #000000; stroke-width: 0.5;"/><!--link stringifier to expr-compiler--><path d="M926.06,1804.958 C984.699,1817.114 1105.95,1842.251 1173.12,1856.177 " fill="none" id="stringifier-expr-compiler" style="stroke: #000000; stroke-width: 0.5;"/><polygon fill="#000000" points="1178.26,1857.242,1170.2586,1851.4993,1173.364,1856.2276,1168.6357,1859.333,1178.26,1857.242" style="stroke: #000000; stroke-width: 0.5;"/><!--link target to _target_js--><path d="M259.02,1389.61 C277.929,1396.61 306.48,1407.2 329.615,1415.77 " fill="none" id="target-_target_js" style="stroke: #000000; stroke-width: 0.5;"/><polygon fill="#000000" points="334.464,1417.57,327.4175,1410.689,329.7763,1415.8307,324.6346,1418.1894,334.464,1417.57" style="stroke: #000000; stroke-width: 0.5;"/><!--link _target_js to _compiler--><path d="M383.442,1412.96 C402.061,1390.09 437.548,1349.11 474,1321 C481.092,1315.53 489.173,1310.4 497.093,1305.87 " fill="none" id="_target_js-_compiler" style="stroke: #000000; stroke-width: 0.5;"/><polygon fill="#000000" points="501.47,1303.41,491.6627,1304.3135,497.1065,1305.8513,495.5687,1311.2951,501.47,1303.41" style="stroke: #000000; stroke-width: 0.5;"/><!--link _target_js to debug--><path d="M403.649,1437.47 C475.444,1452.1 648.475,1480.3 788,1447 C867.461,1428.04 897.069,1424.47 952,1364 C987.296,1325.15 957.479,1290.71 995,1254 C1227,1027.02 1648.32,973.33 1766.76,962.47 " fill="none" id="_target_js-debug" style="stroke: #000000; stroke-width: 0.5;"/><polygon fill="#000000" points="1771.84,962.01,1762.5214,958.822,1766.8596,962.4524,1763.2292,966.7906,1771.84,962.01" style="stroke: #000000; stroke-width: 0.5;"/><!--link _target_js to _emitters_emitter--><path d="M373.363,1447.03 C389.009,1521.74 461.693,1823.534 642,1977 C746.977,2066.35 909.983,2102.744 997.349,2116.465 " fill="none" id="_target_js-_emitters_emitter" style="stroke: #000000; stroke-width: 0.5;"/><polygon fill="#000000" points="1002.479,2117.259,994.1947,2111.9327,997.5375,2116.4961,992.9741,2119.839,1002.479,2117.259" style="stroke: #000000; stroke-width: 0.5;"/><!--link _target_js to _renderer--><path d="M403.75,1421.05 C496.591,1396.44 755.345,1327.83 852.76,1302.01 " fill="none" id="_target_js-_renderer" style="stroke: #000000; stroke-width: 0.5;"/><polygon fill="#000000" points="857.832,1300.66,848.1071,1299.1024,852.9993,1301.9425,850.1591,1306.8347,857.832,1300.66" style="stroke: #000000; stroke-width: 0.5;"/><!--link _target_js to _renderer_compiler--><path d="M379.9,1447.17 C398.229,1478.89 438.793,1548.74 474,1607 C490.247,1633.89 509.408,1664.57 521.972,1684.56 " fill="none" id="_target_js-_renderer_compiler" style="stroke: #000000; stroke-width: 0.5;"/><polygon fill="#000000" points="524.705,1688.91,523.3063,1679.161,522.046,1684.6756,516.5313,1683.4153,524.705,1688.91" style="stroke: #000000; stroke-width: 0.5;"/><!--link _target_js to runtime--><path d="M371.842,1447.24 C380.23,1524.11 416.894,1843.185 474,2100 C490.104,2172.421 517.223,2256.552 529.335,2292.827 " fill="none" id="_target_js-runtime" style="stroke: #000000; stroke-width: 0.5;"/><polygon fill="#000000" points="531.01,2297.824,531.9401,2288.0192,529.4199,2293.0836,524.3554,2290.5634,531.01,2297.824" style="stroke: #000000; stroke-width: 0.5;"/><!--link _target_js to _san_app--><path d="M395.879,1412.82 C416.552,1399.47 446.513,1380.94 474,1367 C527.662,1339.78 558.892,1359.85 599,1315 C699.489,1202.62 712.471,1007.18 713.914,941.36 " fill="none" id="_target_js-_san_app" style="stroke: #000000; stroke-width: 0.5;"/><polygon fill="#000000" points="714.01,936.12,709.8563,945.0501,713.9243,941.1193,717.8551,945.1873,714.01,936.12" style="stroke: #000000; stroke-width: 0.5;"/><!--link _target_js to _san_data--><path d="M397.631,1447.15 C418.486,1459.99 447.876,1477.87 474,1493 C482.196,1497.75 491.076,1502.74 499.471,1507.39 " fill="none" id="_target_js-_san_data" style="stroke: #000000; stroke-width: 0.5;"/><polygon fill="#000000" points="504.079,1509.94,498.1424,1502.0815,499.7046,1507.5183,494.2677,1509.0806,504.079,1509.94" style="stroke: #000000; stroke-width: 0.5;"/><!--link _target_js to ts-morph--><path d="M403.765,1428.22 C515.527,1421.66 870.933,1395.15 952,1320 C997.249,1278.05 958.706,1237.9 995,1188 C1163.64,956.14 1244.32,897.55 1517,809 C1577.87,789.23 1599.12,792.65 1661,809 C1682.75,814.75 1689.84,817.38 1705,834 C1718.81,849.14 1709.05,861.99 1724,876 C1733.44,884.84 1745.93,890.96 1757.98,895.16 " fill="none" id="_target_js-ts-morph" style="stroke: #000000; stroke-width: 0.5;"/><polygon fill="#000000" points="1762.75,896.74,1755.4648,890.1124,1758.0037,895.1674,1752.9487,897.7064,1762.75,896.74" style="stroke: #000000; stroke-width: 0.5;"/><!--link _target_js to utils/underscore--><path d="M380.427,1447.19 C397.196,1473.57 432.513,1524.21 474,1555 C480.051,1559.49 486.994,1563.38 493.986,1566.68 " fill="none" id="_target_js-utils/underscore" style="stroke: #000000; stroke-width: 0.5;"/><polygon fill="#000000" points="498.824,1568.87,492.2744,1561.5145,494.2689,1566.8081,488.9754,1568.8026,498.824,1568.87" style="stroke: #000000; stroke-width: 0.5;"/><!--link _ts_san_app_parser to ast-util--><path d="M380.651,506.88 C397.212,481.92 431.676,436.21 474,415 C570.056,366.86 606.557,386 714,386 C714,386 714,386 1059.5,386 C1169.33,386 1299.3,385.46 1360.81,385.18 " fill="none" id="_ts_san_app_parser-ast-util" style="stroke: #000000; stroke-width: 0.5;"/><polygon fill="#000000" points="1365.83,385.15,1356.8073,381.2015,1360.8301,385.1786,1356.853,389.2014,1365.83,385.15" style="stroke: #000000; stroke-width: 0.5;"/><!--link _ts_san_app_parser to _common_js--><path d="M374.304,541.25 C384.866,580.32 415.558,676.54 474,733 C478.07,736.93 482.789,740.38 487.769,743.38 " fill="none" id="_ts_san_app_parser-_common_js" style="stroke: #000000; stroke-width: 0.5;"/><polygon fill="#000000" points="492.404,746.01,486.5564,738.085,488.0572,743.5392,482.603,745.04,492.404,746.01" style="stroke: #000000; stroke-width: 0.5;"/><!--link _ts_san_app_parser to _component_tree--><path d="M395.958,541.02 C416.675,554.29 446.656,572.78 474,587 C527.848,615.01 551.351,604.4 599,642 C708.071,728.06 724.273,767.54 788,891 C843.516,998.55 875.527,1141.67 886.332,1195.91 " fill="none" id="_ts_san_app_parser-_component_tree" style="stroke: #000000; stroke-width: 0.5;"/><polygon fill="#000000" points="887.312,1200.87,889.4876,1191.2644,886.3408,1195.9652,881.64,1192.8184,887.312,1200.87" style="stroke: #000000; stroke-width: 0.5;"/><!--link _ts_san_app_parser to debug--><path d="M431.31,529.6 C512.818,537.13 661.327,551.19 788,565 C923.39,579.76 1260.31,638 1396.5,638 C1396.5,638 1396.5,638 1590,638 C1635.9,638 1635.88,674.58 1661,713 C1688.47,755.01 1691.03,768.79 1705,817 C1719.42,866.76 1691.12,891.96 1724,932 C1734.56,944.86 1751.66,951.81 1766.82,955.58 " fill="none" id="_ts_san_app_parser-debug" style="stroke: #000000; stroke-width: 0.5;"/><polygon fill="#000000" points="1771.87,956.73,1763.9885,950.8239,1766.9959,955.6151,1762.2047,958.6225,1771.87,956.73" style="stroke: #000000; stroke-width: 0.5;"/><!--link _ts_san_app_parser to dependency-resolver--><path d="M376.072,506.75 C388.646,473.83 420.882,402.32 474,369 C523.285,338.08 589.334,330.64 639.666,330.34 " fill="none" id="_ts_san_app_parser-dependency-resolver" style="stroke: #000000; stroke-width: 0.5;"/><polygon fill="#000000" points="644.794,330.33,635.7883,326.3429,639.794,330.3371,635.7997,334.3429,644.794,330.33" style="stroke: #000000; stroke-width: 0.5;"/><!--link _ts_san_app_parser to normalize-component--><path d="M431.19,510.82 C499.723,497.23 614.28,478 714,478 C714,478 714,478 1059.5,478 C1153.49,478 1261.48,491.25 1329.35,501.21 " fill="none" id="_ts_san_app_parser-normalize-component" style="stroke: #000000; stroke-width: 0.5;"/><polygon fill="#000000" points="1334.58,501.98,1326.2744,496.6868,1329.6355,501.2369,1325.0855,504.598,1334.58,501.98" style="stroke: #000000; stroke-width: 0.5;"/><!--link _ts_san_app_parser to san--><path d="M431.26,540.14 C445.289,543.77 460.149,547.57 474,551 C919.092,661.31 1062.62,602.42 1474,805 C1591.75,862.99 1636.63,876.96 1705,989 C1718.47,1011.08 1705.96,1025.47 1724,1044 C1737.16,1057.52 1757.48,1064.58 1773.58,1068.23 " fill="none" id="_ts_san_app_parser-san" style="stroke: #000000; stroke-width: 0.5;"/><polygon fill="#000000" points="1778.86,1069.34,1770.8737,1063.5764,1773.9666,1068.3128,1769.2302,1071.4058,1778.86,1069.34" style="stroke: #000000; stroke-width: 0.5;"/><!--link _ts_san_app_parser to _san_app--><path d="M382.695,541.25 C400.726,564.72 435.831,606.8 474,633 C523.609,667.05 556.78,642.13 599,685 C635.252,721.81 619.573,746.46 642,793 C660.224,830.82 685.228,872.79 700.465,897.48 " fill="none" id="_ts_san_app_parser-_san_app" style="stroke: #000000; stroke-width: 0.5;"/><polygon fill="#000000" points="703.192,901.89,701.8376,892.1347,700.5523,897.6436,695.0434,896.3583,703.192,901.89" style="stroke: #000000; stroke-width: 0.5;"/><!--link _ts_san_app_parser to _san_app_parser--><path d="M374.691,541.29 C386.948,584.89 422.584,701.99 474,789 C485.496,808.46 502.016,828.01 515.04,842.13 " fill="none" id="_ts_san_app_parser-_san_app_parser" style="stroke: #000000; stroke-width: 0.5;"/><polygon fill="#000000" points="518.614,845.97,515.4155,836.655,515.2096,842.3081,509.5564,842.1021,518.614,845.97" style="stroke: #000000; stroke-width: 0.5;"/><!--link _ts_san_app_parser to _san_sourcefile--><path d="M370.132,506.83 C371.552,455.19 383.505,300.6 474,231 C529.015,188.69 734.438,190.63 834.719,194.31 " fill="none" id="_ts_san_app_parser-_san_sourcefile" style="stroke: #000000; stroke-width: 0.5;"/><polygon fill="#000000" points="839.999,194.51,831.1561,190.1737,835.0026,194.3216,830.8546,198.168,839.999,194.51" style="stroke: #000000; stroke-width: 0.5;"/><!--link _ts_san_app_parser to _source_file_type--><path d="M373.932,506.93 C383.642,468.94 412.557,377.37 474,334 C634.105,220.98 884.192,252.73 997.778,275.25 " fill="none" id="_ts_san_app_parser-_source_file_type" style="stroke: #000000; stroke-width: 0.5;"/><polygon fill="#000000" points="1002.753,276.25,994.717,270.5559,997.8509,275.2653,993.1415,278.3992,1002.753,276.25" style="stroke: #000000; stroke-width: 0.5;"/><!--link _ts_san_app_parser to ts-morph--><path d="M403.443,506.88 C423.473,497.22 449.691,485.6 474,478 C577.664,445.6 605.392,432 714,432 C714,432 714,432 1222.5,432 C1420.07,432 1489.69,406.58 1661,505 C1687.55,520.25 1693.75,529.53 1705,558 C1731.01,623.84 1681.98,819.03 1724,876 C1732.04,886.9 1744.84,893.55 1757.58,897.62 " fill="none" id="_ts_san_app_parser-ts-morph" style="stroke: #000000; stroke-width: 0.5;"/><polygon fill="#000000" points="1762.63,899.11,1755.1275,892.7294,1757.8339,897.6969,1752.8664,900.4032,1762.63,899.11" style="stroke: #000000; stroke-width: 0.5;"/><!--link _ts_san_app_parser to ts2js--><path d="M370.114,506.91 C371.414,452.24 382.892,279.73 474,185 C532.311,124.37 636.791,107.46 686.398,102.77 " fill="none" id="_ts_san_app_parser-ts2js" style="stroke: #000000; stroke-width: 0.5;"/><polygon fill="#000000" points="691.598,102.31,682.2785,99.1246,686.6177,102.7538,682.9886,107.0931,691.598,102.31" style="stroke: #000000; stroke-width: 0.5;"/><!--link _ts_san_app_parser to tsconfig--><path d="M377.685,541.04 C392.412,572.07 427.338,638.33 474,679 C483.087,686.92 494.631,693.27 505.258,698.06 " fill="none" id="_ts_san_app_parser-tsconfig" style="stroke: #000000; stroke-width: 0.5;"/><polygon fill="#000000" points="510.064,700.15,503.404,692.8943,505.4783,698.1572,500.2155,700.2314,510.064,700.15" style="stroke: #000000; stroke-width: 0.5;"/><!--link ts2js to debug--><path d="M738.444,102.39 C856.571,111.01 1410.29,167.69 1661,484 C1696.29,528.52 1693.46,548.38 1705,604 C1712.42,639.74 1702.36,902.6 1724,932 C1733.94,945.5 1751.18,952.49 1766.58,956.11 " fill="none" id="ts2js-debug" style="stroke: #000000; stroke-width: 0.5;"/><polygon fill="#000000" points="1771.71,957.22,1763.7398,951.4341,1766.8195,956.1792,1762.0745,959.2589,1771.71,957.22" style="stroke: #000000; stroke-width: 0.5;"/><!--link ts2js to _san_sourcefile--><path d="M735.553,107.66 C750.389,113.07 771.051,121.36 788,131 C808.706,142.78 811.066,149.96 831,163 C838.337,167.8 846.382,172.66 854.118,177.14 " fill="none" id="ts2js-_san_sourcefile" style="stroke: #000000; stroke-width: 0.5;"/><polygon fill="#000000" points="858.886,179.87,853.0772,171.9165,854.5513,177.3779,849.0899,178.852,858.886,179.87" style="stroke: #000000; stroke-width: 0.5;"/><!--link ts2js to typescript--><path d="M738.78,100.89 C793.641,100.63 937.441,100 1057.5,100 C1057.5,100 1057.5,100 1590,100 C1658.91,100 1672.58,143.19 1705,204 C1764.6,315.77 1791.53,725.85 1797.29,825.88 " fill="none" id="ts2js-typescript" style="stroke: #000000; stroke-width: 0.5;"/><polygon fill="#000000" points="1797.58,830.95,1801.0585,821.7359,1797.2939,825.9582,1793.0716,822.1936,1797.58,830.95" style="stroke: #000000; stroke-width: 0.5;"/><!--link type-guards to san--><path d="M1640.15,1885.987 C1663.61,1883.141 1689.68,1875.321 1705,1856 C1757.2,1790.158 1675.3,1168.47 1724,1100 C1735.32,1084.08 1756.86,1077.21 1773.88,1074.24 " fill="none" id="type-guards-san" style="stroke: #000000; stroke-width: 0.5;"/><polygon fill="#000000" points="1779,1073.44,1769.4908,1070.8757,1774.0598,1074.211,1770.7245,1078.78,1779,1073.44" style="stroke: #000000; stroke-width: 0.5;"/><!--link utils/case to debug--><path d="M1416.65,2580.31 C1433.8,2568.368 1459.06,2548.31 1474,2525 C1628.19,2284.49 1609.37,2190.986 1661,1910 C1679.56,1809.007 1662.7,1070.38 1724,988 C1734.01,974.56 1751.25,967.57 1766.63,963.93 " fill="none" id="utils/case-debug" style="stroke: #000000; stroke-width: 0.5;"/><polygon fill="#000000" points="1771.77,962.82,1762.1276,960.8138,1766.8831,963.8774,1763.8195,968.6329,1771.77,962.82" style="stroke: #000000; stroke-width: 0.5;"/><script type="text/plantuml"><![CDATA[
@startuml

scale max 1920 width
left to right direction

skinparam nodesep 22
skinparam ranksep 43
skinparam monochrome true
skinparam shadowing false
skinparam defaultFontName Tahoma
skinparam defaultFontSize 12
skinparam roundCorner 6
skinparam dpi 150
skinparam arrowColor black
skinparam arrowThickness 0.5
skinparam packageTitleAlignment left

skinparam usecase {
  borderThickness 0.5
}

skinparam rectangle {
  borderThickness 0.5
}

skinparam component {
  borderThickness 1
}


(src)
rectangle "anode-compiler" as _anode_compiler
(anode-util)
(ast-util)
rectangle "common-js" as _common_js
rectangle "compiled-component" as _compiled_component
rectangle "compiler" as _compiler
rectangle "component" as _component
rectangle "component-info" as _component_info
rectangle "component-parser" as _component_parser
rectangle "component-tree" as _component_tree
(dependency-resolver)
(dom-util)
rectangle "element-compiler" as _element_compiler
rectangle "emitters/emitter" as _emitters_emitter
(exec)
(expr-compiler)
rectangle "js-san-app-parser" as _js_san_app_parser
(lang)
(normalize-component)
rectangle "renderer" as _renderer
rectangle "renderer-compiler" as _renderer_compiler
(runtime)
rectangle "san-app" as _san_app
rectangle "san-app-parser" as _san_app_parser
rectangle "san-data" as _san_data
rectangle "san-project" as _san_project
rectangle "san-sourcefile" as _san_sourcefile
rectangle "source-file-type" as _source_file_type
(stringifier)
(target)
rectangle "target-js" as _target_js
rectangle "ts-san-app-parser" as _ts_san_app_parser
(ts2js)
(tsconfig)
(type-guards)
(utils/case)
rectangle "utils/emitter" as _utils_emitter
(utils/fs)
(utils/underscore)

package "Dependencies" {
  [debug]
  [lodash/lodash]
  [san]
  [ts-morph]
  [ts2php]
  [typescript]
}

_anode_compiler ---> (anode-util)
_anode_compiler ---> _compiled_component
_anode_compiler ---> _component
_anode_compiler ---> _component_info
_anode_compiler --> _element_compiler
_anode_compiler --> _emitters_emitter
_anode_compiler --> (expr-compiler)
_anode_compiler ----> [san]
_anode_compiler --> (stringifier)
_anode_compiler ---> (type-guards)
(anode-util) ----> [lodash/lodash]
(anode-util) ----> [san]
(anode-util) --> (type-guards)
(ast-util) ----> [debug]
(ast-util) ----> [ts-morph]
_common_js ----> [debug]
_common_js --> (dependency-resolver)
_compiled_component ----> [san]
_compiler --> _renderer
_compiler --> _san_app
_component --> _compiled_component
_component ----> [san]
_component ----> [ts2php]
_component_info --> _compiled_component
_component_info --> _component
_component_info ----> [lodash/lodash]
_component_info ----> [san]
_component_parser --> _component
_component_parser --> _component_info
_component_parser --> (lang)
_component_parser ----> [lodash/lodash]
_component_parser ----> [san]
_component_tree --> _component
_component_tree --> _component_info
_component_tree --> _component_parser
_component_tree ----> [san]
(dependency-resolver) ----> [ts-morph]
_element_compiler ---> (anode-util)
_element_compiler ---> (dom-util)
_element_compiler --> _emitters_emitter
_element_compiler --> (expr-compiler)
_element_compiler ----> [san]
_element_compiler ---> (type-guards)
_emitters_emitter --> (expr-compiler)
_emitters_emitter ---> _utils_emitter
(expr-compiler) ---> (lang)
(expr-compiler) ----> [san]
(expr-compiler) ---> (type-guards)
_js_san_app_parser --> _common_js
_js_san_app_parser --> _component_tree
_js_san_app_parser ----> [debug]
_js_san_app_parser ----> [san]
_js_san_app_parser --> _san_app
_js_san_app_parser --> _san_app_parser
_js_san_app_parser --> _san_sourcefile
(normalize-component) ----> [ts-morph]
_renderer_compiler --> _anode_compiler
_renderer_compiler ---> _compiled_component
_renderer_compiler ---> _component
_renderer_compiler ---> _component_info
_renderer_compiler ---> _component_tree
_renderer_compiler --> _element_compiler
_renderer_compiler --> _emitters_emitter
_renderer_compiler --> (expr-compiler)
_renderer_compiler ----> [lodash/lodash]
_renderer_compiler ---> _renderer
_renderer_compiler ----> [san]
_renderer_compiler --> (stringifier)
(runtime) ---> _utils_emitter
(runtime) --> (utils/fs)
_san_app --> _component_tree
_san_app --> _san_sourcefile
_san_app_parser ----> [debug]
_san_app_parser ----> [san]
_san_app_parser --> _san_app
_san_data --> _component
_san_project --> _common_js
_san_project --> _compiler
_san_project --> _js_san_app_parser
_san_project --> _renderer
_san_project ----> [san]
_san_project --> (target)
_san_project --> _target_js
_san_project ----> [ts-morph]
_san_project --> _ts_san_app_parser
_san_project --> (tsconfig)
_san_sourcefile --> _component_info
_san_sourcefile --> _source_file_type
_san_sourcefile ----> [ts-morph]
(src) --> (anode-util)
(src) --> _compiler
(src) --> _component
(src) --> (dependency-resolver)
(src) --> (dom-util)
(src) --> (exec)
(src) --> _renderer
(src) ---> [san]
(src) --> _san_app
(src) --> _san_project
(src) --> _san_sourcefile
(src) --> _target_js
(src) --> (utils/case)
(src) --> _utils_emitter
(stringifier) --> (expr-compiler)
(target) --> _target_js
_target_js --> _compiler
_target_js ----> [debug]
_target_js --> _emitters_emitter
_target_js --> _renderer
_target_js --> _renderer_compiler
_target_js --> (runtime)
_target_js --> _san_app
_target_js --> _san_data
_target_js ----> [ts-morph]
_target_js --> (utils/underscore)
_ts_san_app_parser --> (ast-util)
_ts_san_app_parser --> _common_js
_ts_san_app_parser --> _component_tree
_ts_san_app_parser ----> [debug]
_ts_san_app_parser --> (dependency-resolver)
_ts_san_app_parser --> (normalize-component)
_ts_san_app_parser ----> [san]
_ts_san_app_parser --> _san_app
_ts_san_app_parser --> _san_app_parser
_ts_san_app_parser --> _san_sourcefile
_ts_san_app_parser --> _source_file_type
_ts_san_app_parser ----> [ts-morph]
_ts_san_app_parser --> (ts2js)
_ts_san_app_parser --> (tsconfig)
(ts2js) ----> [debug]
(ts2js) --> _san_sourcefile
(ts2js) ----> [typescript]
(type-guards) ----> [san]
(utils/case) ----> [debug]

@enduml


' View and edit on https://arkit.pro
]]></script></g></svg>